<?xml version="1.0" encoding="UTF-8"?><!DOCTYPE svg PUBLIC "-//W3C//DTD SVG 1.1//EN" "http://www.w3.org/Graphics/SVG/1.1/DTD/svg11.dtd"><svg xmlns="http://www.w3.org/2000/svg"><defs><linearGradient id="b" gradientUnits="userSpaceOnUse" x1="41.233" y1="27.781" x2="28.367" y2="50.066"><stop offset=".006" stop-color="#FFF"/><stop offset=".013" stop-color="#F6F6F6"/><stop offset=".053" stop-color="#C8C8C8"/><stop offset=".098" stop-color="#9D9D9D"/><stop offset=".146" stop-color="#777"/><stop offset=".199" stop-color="#575757"/><stop offset=".257" stop-color="#3B3B3B"/><stop offset=".322" stop-color="#252525"/><stop offset=".399" stop-color="#141414"/><stop offset=".493" stop-color="#090909"/><stop offset=".626" stop-color="#020202"/><stop offset=".994"/></linearGradient><filter color-interpolation-filters="sRGB" id="a" filterUnits="userSpaceOnUse" x="13.431" y="30.62" width="36.25" height="24.595"><feColorMatrix values="1 0 0 0 0 0 1 0 0 0 0 0 1 0 0 0 0 0 1 0"/></filter></defs><symbol id="address" viewBox="0 0 24 24"><g fill="none" stroke="currentColor" stroke-linejoin="round" stroke-miterlimit="10"><circle stroke-linecap="round" cx="11.5" cy="3.5" r="3"/><path stroke-linecap="round" d="M11.5 6.5V17m-3-4.722l-1 .222-7-2v11l7 2 9-2 7 2v-11l-7-2-2 .445"/><path d="M7.5 12.5v11m9-13v11"/><path stroke-linecap="round" d="M11.5 2.5a1 1 0 0 1 1 1"/></g></symbol><symbol id="adresse" viewBox="0 0 1024 1024"><g fill="none" stroke="#000" stroke-width="42.565" stroke-linejoin="round" stroke-miterlimit="10"><path stroke-linecap="round" d="M619.007 150.59c0 70.541-57.156 127.695-127.693 127.695-70.5 0-127.696-57.154-127.696-127.695 0-70.518 57.196-127.696 127.696-127.696 70.537 0 127.693 57.178 127.693 127.696zM491.313 278.285v446.927M363.617 524.233l-42.566 9.434-297.957-85.121v468.208l297.957 85.133 383.086-85.133 297.957 85.133v-468.22l-297.957-85.121-85.13 18.934"/><path d="M321.051 533.667v468.22M704.137 448.546v468.208"/><path stroke-linecap="round" d="M491.313 108.026c23.524 0 42.561 19.08 42.561 42.564"/></g></symbol><symbol id="agency" viewBox="0 0 22 26"><path fill-rule="evenodd" clip-rule="evenodd" fill="currentColor" d="M20 24h-1v-5h-5v5h-1V10h-3V8h3V7h-3V6h4V5h-4V4h5V3h-5V2h10v22zm-2 0h-3v-4h3v4zm-7 0H9v-5H4v5H2v-6h1v-1H2v-1h3v-1H2v-1h4v-1H2v-1h9v12zm-3 0H5v-4h3v4zM8 0v10H0v16h22V0H8z"/></symbol><symbol id="agencyNotification" viewBox="0 0 56 56"><path fill="#FFF" d="M28 3c13.785 0 25 11.215 25 25S41.785 53 28 53 3 41.785 3 28 14.215 3 28 3m0-3C12.54 0 0 12.54 0 28s12.54 28 28 28 28-12.54 28-28S43.46 0 28 0z"/><path fill="#FFF" d="M28 32.5a1.5 1.5 0 0 1-1.5-1.5V13a1.5 1.5 0 1 1 3 0v18a1.5 1.5 0 0 1-1.5 1.5zM25 39c0-1.66 1.34-3 3-3s3 1.34 3 3-1.34 3-3 3-3-1.34-3-3z"/></symbol><symbol id="agencysearch" viewBox="0 0 46 68"><g fill="#FFF"><path d="M23 68a2 2 0 0 1-1.666-.893C20.464 65.796 0 34.866 0 22.87 0 10.26 10.318 0 23 0c12.683 0 23 10.26 23 22.87 0 11.996-20.463 42.926-21.334 44.237A2 2 0 0 1 23 68zm0-64C12.523 4 4 12.465 4 22.87c0 8.192 12.47 29.299 19 39.47 6.531-10.171 19-31.278 19-39.47C42 12.465 33.477 4 23 4z"/><path d="M23 30c-4.411 0-8-3.589-8-8s3.589-8 8-8 8 3.589 8 8-3.589 8-8 8zm0-14c-3.309 0-6 2.691-6 6s2.691 6 6 6 6-2.691 6-6-2.691-6-6-6z"/></g></symbol><symbol id="appointment" viewBox="0 0 24 24"><path d="M7.492 10.012c.78-.78.78-2.048 0-2.83L5.37 5.063a2.001 2.001 0 0 0-2.828 0L1.377 6.226A2.992 2.992 0 0 0 1 10a46.51 46.51 0 0 0 13 13 2.999 2.999 0 0 0 3.774-.378l1.165-1.164c.78-.78.78-2.047 0-2.828l-2.123-2.122a2.004 2.004 0 0 0-2.83 0l-.706.707a47.418 47.418 0 0 1-6.495-6.497l.707-.706zM12 .5C18.352.5 23.5 5.648 23.5 12M12 4.5a7.5 7.5 0 0 1 7.5 7.5M12 8.5a3.5 3.5 0 0 1 3.5 3.5" fill="none" stroke="currentColor" stroke-linecap="round" stroke-linejoin="round" stroke-miterlimit="10"/></symbol><symbol id="aroundme" viewBox="0 0 24 24"><path d="M21.723 11.1C21.294 6.43 17.57 2.704 12.9 2.274V0h-1.8v2.274c-4.669.43-8.394 4.155-8.823 8.826H0v1.8h2.277c.429 4.671 4.154 8.396 8.823 8.826V24h1.8v-2.274c4.669-.43 8.394-4.155 8.823-8.826H24v-1.8h-2.277zm-1.809 1.8a7.98 7.98 0 0 1-7.014 7.017V17.74h-1.8v2.177A7.98 7.98 0 0 1 4.086 12.9H6.26v-1.8H4.086A7.98 7.98 0 0 1 11.1 4.083V6.26h1.8V4.083a7.98 7.98 0 0 1 7.014 7.017H17.74v1.8h2.175z"/><path d="M12 10.2a1.8 1.8 0 1 0 0 3.6 1.8 1.8 0 0 0 0-3.6z"/></symbol><symbol id="auto" viewBox="0 0 1024 1024"><g fill="none" stroke="currentColor" stroke-width="42.44" stroke-linecap="round" stroke-linejoin="round" stroke-miterlimit="10"><path d="M66.503 741.792h127.32v84.878H66.502zm763.902 0h127.318v84.878H830.405zm-466.825-84.88h297.068v127.32H363.58z"/><path d="M660.647 741.792h339.517v-169.76l-127.318-127.34H151.382l-127.32 127.34v169.76H363.58m424.388-551.737H236.26l-84.878 254.637h721.464z"/><path d="M24.063 359.812h127.32v84.88H24.062zm848.783 0h127.318v84.88H872.846zM24.063 572.033h169.76v84.88H24.062zm806.342 0h169.76v84.88h-169.76zm-318.285 0v-42.438"/></g></symbol><symbol id="benefit" viewBox="0 0 1024 1024"><g fill="none" stroke="currentColor" stroke-width="42.414" stroke-linecap="round" stroke-linejoin="round" stroke-miterlimit="10"><path d="M724.074 364.313L405.972 661.207 299.938 555.172"/><path d="M999.763 512.76c0 269.39-218.445 487.753-487.758 487.753-269.432 0-487.755-218.362-487.755-487.752 0-269.392 218.323-487.756 487.755-487.756 269.312 0 487.758 218.364 487.758 487.757z"/></g></symbol><symbol id="calculator" viewBox="0 0 17 24"><g fill="none" stroke="currentColor" stroke-linecap="round" stroke-linejoin="round" stroke-miterlimit="10"><path d="M16.5 22.5c0 .55-.45 1-1 1h-14c-.55 0-1-.45-1-1v-21c0-.55.45-1 1-1h14c.55 0 1 .45 1 1v21z"/><path d="M2.5 2.5h12v5h-12zm10 2v1m-9 6h1m2 0h1m2 0h1m2 0h1m-10 3h1m2 0h1m2 0h1m2 0h1m-10 3h1m2 0h1m2 0h1m2 0h1m-10 3h1m2 0h1m2 0h4"/></g></symbol><symbol id="city" viewBox="0 0 22 26"><path d="M8 0v10H0v16h22V0H8zm0 24H5v-4h3v4zm3 0H9v-5H4v5H2v-6h1v-1H2v-1h3v-1H2v-1h4v-1H2v-1h9v12zm7 0h-3v-4h3v4zm2 0h-1v-5h-5v5h-1V10h-3V8h3V7h-3V6h4V5h-4V4h5V3h-5V2h10v22z" opacity=".502"/></symbol><symbol id="claim" viewBox="0 0 23 23"><path fill="none" stroke="currentColor" stroke-linecap="round" stroke-linejoin="round" stroke-miterlimit="10" d="M11.5 15.805V8.152"/><path fill="currentColor" d="M11.5 18.195a.957.957 0 1 0 0 1.914.957.957 0 0 0 0-1.914z"/><path fill="none" stroke="currentColor" stroke-linecap="round" stroke-linejoin="round" stroke-miterlimit="10" d="M22.5 22.5H.5l11-22z"/></symbol><symbol id="clock" viewBox="0 0 18 18"><g stroke="#79838d" fill="none"><path d="M17 9A8 8 0 1 1 .999 8.999 8 8 0 0 1 17 9z" stroke-width="2"/><path d="M8.652 5.174V9l4.174 3.826"/></g></symbol><symbol id="comparison-table-doc" viewBox="0 0 24 30"><g fill="none" stroke="currentColor" stroke-miterlimit="10"><path stroke-width="3" d="M1.49 1.5h13.4l7.51 8.1v18.9H1.49z"/><path d="M14.89 1.5v8.1h7.51M4.433 10.978h6.93m-6.93 2.784H18.3M4.433 16.545H18.3M4.433 19.328H18.3M4.433 22.11H18.3"/></g></symbol><symbol id="comparison-table-no" viewBox="0 0 36 36"><path d="M31.5 5.625L6.688 30.438m-1-24.813L30.5 30.438" fill="none" stroke="#79838D" stroke-width="3" stroke-linecap="round" stroke-linejoin="round" stroke-miterlimit="10"/></symbol><symbol id="comparison-table-yes" viewBox="0 0 36 36"><path fill="none" stroke="#7A9F35" stroke-width="4" stroke-linecap="round" stroke-linejoin="round" stroke-miterlimit="10" d="M2.198 25l8.414 8.576L33.75 2.833"/></symbol><symbol id="fax" viewBox="0 0 18 21"><path fill="currentColor" d="M15.833 20.5H2a.5.5 0 0 1-.5-.5V1.708c0-.276.265-1 .542-1L16 .5a.5.5 0 0 1 .5.5l-.167 19a.5.5 0 0 1-.5.5zM3 19h12V2H3v17z"/><path fill="currentColor" d="M12.83 6H6a.5.5 0 0 1 0-1h6.83a.5.5 0 0 1 0 1zm0 2H6a.5.5 0 0 1 0-1h6.83a.5.5 0 0 1 0 1z"/><g fill="currentColor"><path fill="#FFF" d="M17.5 15.5c0 .55-.45 1-1 1h-15c-.55 0-1-.45-1-1v-4c0-.55.45-1 1-1h15c.55 0 1 .45 1 1v4z"/><path fill="#currentColor" d="M16.5 17h-15C.673 17 0 16.327 0 15.5v-4c0-.827.673-1.5 1.5-1.5h15c.827 0 1.5.673 1.5 1.5v4c0 .827-.673 1.5-1.5 1.5zm-15-6a.5.5 0 0 0-.5.5v4a.5.5 0 0 0 .5.5h15c.275 0 .5-.225.5-.5v-4a.5.5 0 0 0-.5-.5h-15z"/></g><path fill="currentColor" d="M16.5 21h-15a.5.5 0 0 1-.5-.5V.5a.5.5 0 0 1 .5-.5h15a.5.5 0 0 1 .5.5v20a.5.5 0 0 1-.5.5zM2 20h14V1H2v19z"/></symbol><symbol id="haftpflicht" viewBox="0 0 1024 1024"><g fill="none" stroke="currentColor" stroke-width="42.596" stroke-linejoin="round" stroke-miterlimit="10"><path d="M1001.65 627.12c12.313-278.946-210.815-511.14-489.292-511.14-278.325 0-501.62 232.028-489.265 511.14 0 0-.583-85.19 105.907-85.19 106.488 0 127.786 85.19 127.786 85.19s21.298-85.19 127.786-85.19 127.786 85.19 127.786 85.19 42.58-85.19 127.77-85.19c85.193 0 127.788 85.19 127.788 85.19s42.595-85.19 127.785-85.19c85.195 0 105.95 85.19 105.95 85.19z"/><path stroke-linecap="round" d="M512.317 115.98V30.788M618.79 946.587c0 63.893-106.473 63.893-106.473 0V627.12"/></g></symbol><symbol id="handy" viewBox="0 0 1024 1024"><path fill="none" stroke="#000" stroke-width="42.59" stroke-linecap="round" stroke-miterlimit="10" d="M746.411 703.981c0 23.416-19.173 42.59-42.588 42.59H320.51c-23.415 0-42.59-19.174-42.59-42.59V235.516c0-23.416 19.175-42.589 42.59-42.589h383.313c23.415 0 42.588 19.174 42.588 42.589v468.465z"/><path fill="none" stroke="#000" stroke-width="42.59" stroke-linecap="round" stroke-miterlimit="10" d="M831.594 874.342c0 70.292-57.48 127.771-127.771 127.771H320.51c-70.271 0-127.771-57.479-127.771-127.771V150.335c0-70.27 57.5-127.77 127.771-127.77h383.313c70.29 0 127.771 57.5 127.771 127.77v724.007zM405.69 107.745h212.951"/><path fill="none" stroke="#000" stroke-width="42.59" stroke-linecap="round" stroke-linejoin="round" stroke-miterlimit="10" d="M448.282 831.753h127.77v85.179h-127.77z"/></symbol><symbol id="hausrat" viewBox="0 0 1024 1024"><path d="M236.096 491.628V23.99m552.639 467.638V23.99M236.096 66.503h552.64v212.563h-552.64zm552.639 425.125h-552.64l-85.026 127.53h722.693zM151.07 619.158V406.604m85.026 0H66.044m807.719 212.554V406.604m-85.028 0h170.052M214.838 619.2l616.41 382.614M809.993 619.2l-616.41 382.614" fill="none" stroke="currentColor" stroke-width="42.513" stroke-linecap="round" stroke-linejoin="round" stroke-miterlimit="10"/></symbol><symbol id="hypothek" viewBox="0 0 1024 1024"><g fill="none" stroke="currentColor" stroke-width="42.608" stroke-linejoin="round" stroke-miterlimit="10"><path stroke-linecap="round" d="M22.5 911.14h979.983M22.5 570.275l426.08-170.437"/><path d="M107.716 536.987V911.14"/><path stroke-linecap="round" d="M384.668 101.582l617.815 383.47"/><path d="M917.268 433.124V911.14M789.444 353.233v-145.13h85.216v197.726"/><path stroke-linecap="round" d="M533.797 740.706h298.255V911.14H533.797zm149.127 0V911.14M661.62 442.446c0 35.325-28.626 63.91-63.912 63.91-35.284 0-63.91-28.585-63.91-63.91 0-35.286 28.626-63.914 63.91-63.914 35.286 0 63.912 28.628 63.912 63.914zM192.93 698.1h170.434v213.04H192.93zm0-85.217h170.434"/><path d="M448.58 142.19v768.95"/></g></symbol><symbol id="infoicon-close" viewBox="0 0 24 24"><path fill-rule="evenodd" fill="currentColor" d="M17.087 18.573l-4.712-4.712-4.712 4.713-1.863-1.86L10.512 12 5.8 7.29l1.863-1.864 4.712 4.71 4.712-4.71 1.86 1.863-4.71 4.71 4.71 4.712zM12 0C5.383 0 0 5.383 0 12c0 6.616 5.383 12 12 12s12-5.384 12-12c0-6.617-5.383-12-12-12z"/></symbol><symbol id="infoicon-open" viewBox="2 2 24 24"><path fill="currentColor" d="M14 26C7.383 26 2 20.616 2 14S7.383 2 14 2s12 5.383 12 12-5.384 12-12 12zm0-22.244C8.35 3.756 3.756 8.35 3.756 14c0 5.648 4.595 10.245 10.244 10.245 5.65 0 10.243-4.597 10.243-10.245 0-5.65-4.595-10.244-10.243-10.244z"/><path fill="currentColor" d="M12.683 10.487h2.634v10.537h-2.634zm0-3.512h2.634V9.61h-2.634z"/></symbol><symbol id="kontakt" viewBox="0 0 1024 1024"><g fill="none" stroke="#000" stroke-width="42" stroke-miterlimit="10"><path d="M106.474 617.992c-46.829 0-81.394-37.968-81.394-84.796 0-46.834 34.565-84.801 81.394-84.801M615.264 935.98h84.798c81.982 0 148.396-66.412 148.396-148.394v-42.399M615.264 935.98c0 35.113-25.087 63.598-60.198 63.598-35.112 0-67.003-28.484-67.003-63.598 0-35.11 28.492-63.598 63.604-63.598 35.111.001 63.597 28.488 63.597 63.598zM276.068 745.188H191.27c-46.828 0-84.796-37.967-84.796-84.798V405.996c0-46.828 37.969-84.797 84.796-84.797h84.798v423.989zM912.057 617.992c46.826 0 88.194-37.968 88.194-84.796 0-46.834-41.368-84.801-88.194-84.801"/><path d="M742.462 745.188h84.795c46.829 0 84.8-37.967 84.8-84.798V405.996c0-46.828-37.971-84.797-84.8-84.797h-84.795v423.989zM212.471 321.198c0-163.922 136.272-296.789 300.196-296.789 163.881 0 293.393 132.867 293.393 296.789"/></g></symbol><symbol id="leben" viewBox="0 0 1024 1024"><g fill="none" stroke="currentColor" stroke-width="42.594" stroke-linejoin="round" stroke-miterlimit="10"><path stroke-linecap="round" d="M491.323 576.798v425.94M832.07 236.024c-16.803 0-33.108 2.56-48.5 7.134-26.204-125.68-137.514-220.105-270.948-220.105-99.664 0-186.766 52.87-235.557 131.9-13.353-2.62-27.162-4.117-41.305-4.117-117.632 0-212.97 95.357-212.97 212.97 0 117.634 95.338 212.992 212.97 212.992 48.293 0 92.72-16.223 128.448-43.365 42.926 27.35 93.756 43.365 148.414 43.365 70.042 0 133.852-26.205 182.643-69.133 31.028 41.888 80.652 69.133 136.807 69.133 94.132 0 170.378-76.267 170.378-170.398 0-94.09-76.247-170.376-170.38-170.376z"/><path d="M491.323 853.658l103.903-103.906"/><path stroke-linecap="round" d="M704.29 704.58c0 35.313-28.62 63.89-63.892 63.89-35.314 0-63.89-28.576-63.89-63.89 0-35.274 28.575-63.893 63.89-63.893 35.272 0 63.89 28.62 63.89 63.892z"/></g></symbol><symbol id="mail" viewBox="0 0 22 16"><path fill="currentColor" d="M20 16H2c-1.327 0-2-.673-2-2V3c0-1.445.626-3 2-3h18c1.374 0 2 1.555 2 3v11c0 1.327-.673 2-2 2zM2 14h18V3c0-.445-.103-.823-.188-1H2.188C2.103 2.177 2 2.555 2 3v11z"/><path fill="currentColor" d="M11 10.5a.5.5 0 0 1-.332-.126l-9-8a.5.5 0 1 1 .664-.748L11 9.331l8.668-7.705a.5.5 0 1 1 .664.748l-9 8A.5.5 0 0 1 11 10.5z"/></symbol><symbol id="mehr" viewBox="0 0 80 80"><path fill="none" stroke="currentColor" stroke-width="3" stroke-miterlimit="10" d="M40 73.5C21.526 73.5 6.5 58.472 6.5 40 6.5 21.527 21.527 6.5 40 6.5S73.497 21.527 73.497 40c0 18.472-15.027 33.5-33.5 33.5z"/><path fill="none" stroke="currentColor" stroke-width=".8" stroke-miterlimit="10" d="M39.89 14.396c-14.357 0-25.998 11.64-25.998 26s11.64 26 26 26 25.998-11.64 25.998-26-11.64-26-26-26z"/><path stroke="currentColor" stroke-miterlimit="10" d="M37.5 27.5h4v27h-4z"/><path stroke="currentColor" stroke-miterlimit="10" d="M26.5 38.5h27v4h-27z"/></symbol><symbol id="mobilephone" viewBox="0 0 14 21"><path fill-rule="evenodd" clip-rule="evenodd" fill="currentColor" d="M11.85 19h-9.7v-3h9.7v3zM2.15 2h9.7v2h-9.7V2zm0 3h9.7v10h-9.7V5zm9.7-5h-9.7L0 2v17l2.15 2h9.7L14 19V2l-2.15-2z"/><path fill="#79838D" d="M9.141 17H4.86c-.31 0-.55.221-.55.5s.24.5.55.5h4.281c.31 0 .549-.221.549-.5s-.24-.5-.549-.5z"/></symbol><symbol id="person" viewBox="0 0 80 80"><circle cx="53.5" cy="43.5" r="2.5"/><circle cx="61.5" cy="43.5" r="2.5"/><circle cx="69.5" cy="43.5" r="2.5"/><path d="M73.834 30h-24a5.983 5.983 0 0 0-4.84 2.481 23.086 23.086 0 0 0-1.919-.993A15.935 15.935 0 0 0 47 21c0-8.822-7.178-16-16-16s-16 7.178-16 16c0 3.723 1.304 7.313 3.638 10.155C7.302 35.871 2 48.145 2 69.5V72h57v-2.5c0-4.547-.22-8.99-.613-12.5h15.447C76.779 57 79 54.636 79 51.5v-16c0-3.136-2.22-5.5-5.166-5.5zm-55.206-5.023a13.127 13.127 0 0 1-.286-1.059c-.017-.076-.041-.148-.058-.224-.08-.38-.138-.765-.184-1.153-.007-.061-.02-.12-.028-.181-.048-.45-.072-.903-.072-1.36 0-7.168 5.832-13 13-13s13 5.832 13 13c0 .463-.026.923-.075 1.378-.014.133-.042.26-.06.392-.044.319-.09.638-.157.951-.034.162-.082.318-.122.477-.07.275-.14.55-.228.818-.057.177-.127.349-.192.523-.09.24-.18.48-.284.713a12.38 12.38 0 0 1-.263.544c-.106.214-.217.427-.336.635-.102.18-.21.355-.322.53a13.064 13.064 0 0 1-.76 1.072c-.167.21-.343.415-.523.616-.11.122-.217.247-.331.365-.255.262-.522.514-.8.757-.066.057-.127.12-.194.176l-.142.12c-.355.29-.727.557-1.11.808l-.011.007c-.115.076-.236.143-.353.215-.404.246-.818.468-1.243.668-.073.034-.144.072-.219.106-.2.089-.403.169-.607.248-.146.056-.292.11-.44.161a12.921 12.921 0 0 1-1.521.432c-.121.026-.243.043-.365.065a12.626 12.626 0 0 1-1.18.164c-.384.035-.77.059-1.162.059-.4 0-.796-.024-1.188-.06-.113-.01-.225-.024-.337-.038-.3-.035-.597-.08-.891-.136-.098-.018-.195-.034-.292-.054-.38-.081-.755-.176-1.122-.29-.05-.015-.099-.034-.149-.05a12.619 12.619 0 0 1-1.224-.467c-.29-.127-.573-.263-.85-.41-.065-.034-.13-.065-.194-.1a13.032 13.032 0 0 1-3.125-2.41 12.85 12.85 0 0 1-.503-.553 13.109 13.109 0 0 1-.361-.446c-.144-.184-.286-.37-.42-.562-.127-.182-.244-.369-.362-.557-.107-.172-.216-.344-.317-.521-.13-.233-.247-.473-.363-.713-.07-.146-.146-.288-.211-.437a13.13 13.13 0 0 1-.345-.895c-.038-.109-.083-.214-.118-.324zM47 69V58h-1v11H15V58h-1v11H5.001c.005-1.228.031-2.416.072-3.579l.01-.313c.041-1.054.102-2.072.173-3.072.015-.21.027-.424.044-.632.07-.89.157-1.749.252-2.595.033-.301.065-.606.102-.902.093-.74.2-1.457.312-2.164.06-.376.12-.752.185-1.118a54.424 54.424 0 0 1 .641-3.057 44.426 44.426 0 0 1 .785-2.826l.013-.036c.845-2.663 1.9-4.992 3.173-6.998l.039-.06c.403-.632.829-1.231 1.276-1.8a20.36 20.36 0 0 1 1.701-1.902 19.288 19.288 0 0 1 3.6-2.782c.213-.127.425-.254.642-.373.447-.242.907-.466 1.377-.676.172-.077.343-.154.518-.227.531-.22 1.077-.42 1.638-.6.603-.196 1.22-.374 1.858-.524.3.194.607.373.918.543l.013.006c.356.193.721.366 1.092.526a13.917 13.917 0 0 0 1.236.468c.081.026.161.056.243.081.395.12.795.225 1.2.31.084.017.17.03.254.046.333.063.67.114 1.007.153.117.014.233.028.352.039.421.038.845.064 1.273.064a13.797 13.797 0 0 0 1.625-.103 13.866 13.866 0 0 0 4.55-1.352c.09-.044.18-.083.268-.129.22-.114.43-.237.641-.361.06-.036.123-.067.183-.103.724.193 1.424.418 2.104.67l.129.05a20.2 20.2 0 0 1 3.923 1.993c.548.36 1.077.739 1.577 1.15V41H34.914L46 48.76v2.74c0 2.003 2.024 3.5 3.834 3.5h5.261c.558 3.703.884 8.748.904 14H47zm29-17.5c0 1.378-1.121 2.5-2.5 2.5H49.834C48.524 54 47 52.908 47 51.5v-3.26L38.086 42H47v-6.5c0-.135.02-.266.04-.395l.023-.088c.29-1.13 1.507-2.017 2.771-2.017H73.5c1.379 0 2.5 1.122 2.5 2.5v16z"/></symbol><symbol id="phone" viewBox="0 0 20 18.994"><path fill="currentColor" d="M17.43 8.043h-2.34c-1.417 0-2.57-1.135-2.57-2.53v-.228a36.857 36.857 0 0 0-5.04 0v.229c0 1.395-1.153 2.53-2.57 2.53H2.57C1.153 8.043 0 6.909 0 5.514v-1.53C0 2.451 1.216 1.014 2.769.713a37.05 37.05 0 0 1 14.466.001c1.548.3 2.765 1.737 2.765 3.27v1.53c0 1.395-1.153 2.529-2.57 2.529zM10 3.199c1.213 0 2.429.057 3.614.169a1 1 0 0 1 .905.996v1.15c0 .287.261.53.57.53h2.34c.31 0 .57-.243.57-.53v-1.53c0-.588-.527-1.187-1.15-1.309a35.04 35.04 0 0 0-13.693-.001C2.527 2.797 2 3.396 2 3.984v1.53c0 .287.261.53.57.53h2.34c.309 0 .57-.243.57-.53v-1.15a1 1 0 0 1 .905-.996A38.607 38.607 0 0 1 10 3.199zm-5 7.795h2v2H5zm4 0h2v2H9zm4 0h2v2h-2zm-8 3h2v2H5zm4 0h2v2H9zm4 0h2v2h-2zm-8 3h2v2H5zm4 0h2v2H9zm4 0h2v2h-2z"/></symbol><symbol id="rechner" viewBox="0 0 1024 1024"><path fill="none" stroke="#231F20" stroke-width="42.414" stroke-linecap="round" stroke-linejoin="round" stroke-miterlimit="10" d="M853.237 956.49c0 23.361-19.054 42.415-42.414 42.415H217.021c-23.319 0-42.414-19.054-42.414-42.415V65.787c0-23.318 19.095-42.413 42.414-42.413h593.802c23.36 0 42.414 19.095 42.414 42.413V956.49z"/><path fill="none" stroke="#231F20" stroke-width="42.414" stroke-linecap="round" stroke-linejoin="round" stroke-miterlimit="10" d="M259.437 108.203H768.41v212.07H259.437zM301.851 489.929h42.413M429.093 489.929h42.414M556.338 489.929h42.414M683.58 489.929h42.414M301.851 617.178h42.413M429.093 617.178h42.414M556.338 617.178h42.414M683.58 617.178h42.414M301.851 744.42h42.413M429.093 744.42h42.414M556.338 744.42h42.414M683.58 744.42h42.414M301.851 871.662h42.413M429.093 871.662h42.414M556.338 871.662h169.656"/></symbol><symbol id="reise" viewBox="0 0 1024 1024"><g fill="none" stroke="#000" stroke-width="42.462" stroke-linecap="round" stroke-linejoin="round" stroke-miterlimit="10"><path d="M1001.08 511.949c0 269.695-218.651 488.308-488.316 488.308-269.704 0-488.315-218.613-488.315-488.308 0-269.645 218.611-488.299 488.315-488.299 269.665 0 488.316 218.654 488.316 488.299z"/><path d="M873.696 183.09S852.465 299.653 767.54 342.114c-84.922-21.23-169.847 42.463-148.615 42.463 21.23 0 42.461 84.921 42.461 84.921 21.232 21.229 63.693 0 63.693 0 53.076 53.063-84.924 148.6-84.924 169.832s53.077 31.848 21.23 63.693-63.692 42.462-63.692 42.462c0 106.154-106.165 106.154-127.395 106.154-21.232 0-63.694-84.923-63.694-106.154 0-21.23 21.232-42.462 21.232-63.693 0-21.229-42.464-63.694-42.464-63.694 0-84.923-63.693-63.69-127.384-63.69-63.693 0-63.693-84.909-63.693-84.909s0-148.614 106.154-169.846c106.154-21.23 106.154 21.231 106.154 21.231 42.462 42.461 127.392 0 169.858 0 0 0 21.23-148.618-21.231-127.386-42.468 21.232-80.537 4.811-84.933-42.461C464.12 84.69 655.58 44.882 655.58 44.882"/></g></symbol><symbol id="schaden" viewBox="0 0 1024 1024"><path fill="none" stroke="currentColor" stroke-width="44.405" stroke-linecap="round" stroke-linejoin="round" stroke-miterlimit="10" d="M512.244 703.08V363.27"/><path fill="currentColor" d="M512.244 809.236c-23.483 0-42.475 19.036-42.475 42.498 0 23.458 18.99 42.45 42.474 42.45 23.42 0 42.5-18.992 42.5-42.45 0-23.462-19.08-42.498-42.5-42.498z"/><path fill="none" stroke="currentColor" stroke-width="44.405" stroke-linecap="round" stroke-linejoin="round" stroke-miterlimit="10" d="M1000.702 1000.385H23.792L512.243 23.468z"/></symbol><symbol id="vcard" viewBox="0 0 16 21.003"><g fill="currentColor"><path d="M8.93 16.471V12.04a.27.27 0 0 0-.27-.271H7.42a.27.27 0 0 0-.27.271v4.431c0 .139-.12.26-.26.26H5.33c-.21 0-.34.24-.22.41l2.67 3.75c.11.149.33.149.44 0l2.66-3.75c.13-.17 0-.41-.22-.41H9.2a.269.269 0 0 1-.27-.26z"/><path d="M12.57 17.67h1.73V1.66H1.7v16h1.65l1.18 1.66H0V0h16v19.32h-4.609z"/></g></symbol><symbol id="download_archive" viewBox="0 0 25 25"><path fill="currentColor" d="M20 22H5V3h9.707L20 8.293V22zM6 21h13V8.707L14.293 4H6v17z"/><path fill="currentColor" d="M19 9h-5V4h1v4h4v1z"/><path fill="currentColor" d="M21 23H4V2h11.121L21 7.879V23zM5 22h15V8.293L14.707 3H5v19z"/><path fill="currentColor" d="M20 22H5V3h9.707L20 8.293V22zM6 21h13V8.707L14.293 4H6v17z"/><path fill="currentColor" d="M11 19H8v-5h3v5zm-2-1h1v-3H9v3zm1-6H8v-1h2v1zm1-7H9V4h2v1zm-1 0H8v1h2V5zm1 1H9v1h2V6zm-1 1H8v1h2V7zm1 1H9v1h2V8zm-1 1H8v1h2V9zm1 1H9v1h2v-1zm0 2H9v1h2v-1zm-1 1H9v1h1v-1z"/></symbol><symbol id="download_default" viewBox="0 0 25 25"><path fill="currentColor" d="M20 22H5V3h9.707L20 8.293V22zM6 21h13V8.707L14.293 4H6v17z"/><path fill="currentColor" d="M19 9h-5V4h1v4h4v1z"/><path fill="currentColor" d="M21 23H4V2h11.121L21 7.879V23zM5 22h15V8.293L14.707 3H5v19z"/><path fill="currentColor" d="M20 22H5V3h9.707L20 8.293V22zM6 21h13V8.707L14.293 4H6v17z"/></symbol><symbol id="download_document" viewBox="0 0 25 25"><path fill="currentColor" d="M20 22H5V3h9.707L20 8.293V22zM6 21h13V8.707L14.293 4H6v17z"/><path fill="currentColor" d="M19 9h-5V4h1v4h4v1zm-7 0H8v1h4V9zm5 4H8v1h9v-1zm0 2H8v1h9v-1zm0 2H8v1h9v-1z"/><path fill="currentColor" d="M21 23H4V2h11.121L21 7.879V23zM5 22h15V8.293L14.707 3H5v19z"/><path fill="currentColor" d="M20 22H5V3h9.707L20 8.293V22zM6 21h13V8.707L14.293 4H6v17z"/></symbol><symbol id="download_image" viewBox="0 0 25 25"><path fill="currentColor" d="M22 21H3V4h19v17zM4 20h17V5H4v15z"/><path fill="currentColor" d="M20 19H5v-3.651l4.5-6.75 4.139 6.208 2.861-1.908 3.5 2.333V19zM6 18h13v-2.232L16.5 14.1l-3.139 2.092L9.5 10.401 6 15.651V18z"/><path fill="currentColor" d="M15.5 12c-1.378 0-2.5-1.121-2.5-2.5S14.122 7 15.5 7 18 8.121 18 9.5 16.878 12 15.5 12zm0-4c-.827 0-1.5.673-1.5 1.5s.673 1.5 1.5 1.5 1.5-.673 1.5-1.5S16.327 8 15.5 8z"/><path fill="currentColor" d="M23 22H2V3h21v19zM3 21h19V4H3v17z"/></symbol><symbol id="download_presentation" viewBox="0 0 25 25"><path fill="currentColor" d="M18 17H3V4h15v13zM4 16h13V5H4v11z"/><path fill="currentColor" d="M22 21H7v-3h12V8h3v13zM8 20h13V9h-1v10H8v1z"/><path fill="currentColor" d="M20 19H5v-3h12V6h3v13zM6 18h13V7h-1v10H6v1z"/><path fill="currentColor" d="M23 22H6v-2H4v-2H2V3h17v2h2v2h2v15zM7 21h15V8h-2V6h-2V4H3v13h2v2h2v2z"/></symbol><symbol id="download_spreadsheet" viewBox="0 0 25 25"><path fill="currentColor" d="M22 21H3V4h19v17zM4 20h17V5H4v15z"/><path fill="currentColor" d="M23 22H2V3h21v19zM3 21h19V4H3v17z"/><path fill="currentColor" d="M8 4H7v17h1V4z"/><path fill="currentColor" d="M21 12H4v1h17v-1zm0 4H4v1h17v-1zm0-7H4V8h17v1z"/></symbol><symbol id="aircraft-insurance" viewBox="0 0 80 80"><path fill="currentColor" d="M32.807 42H39v-4h-4.86zM40 38v4h6.193l-1.333-4z"/><path fill="currentColor" d="M58 40c0-4.138-3.158-7.552-7.19-7.96L54.17 27H43.89l-1.2-9h-6.38l-1.2 9H24.83l3.36 5.04C24.156 32.45 21 35.863 21 40H-.17l5.23 7.848 24.275 2.915C31.665 54.01 35.493 56 39.5 56c4.006 0 7.836-1.99 10.166-5.237l24.274-2.915L79.17 40H58zm-8.818-4.932A5.006 5.006 0 0 1 55 40c0 .322-.037.64-.1.95-.005.036-.01.072-.017.11-.07.32-.17.634-.304.94h-2.782c.55-.495.9-1.204.9-2 0-1.488-1.21-2.7-2.698-2.7a2.66 2.66 0 0 0-1.644.575 2.778 2.778 0 0 0-.08-.12c-.046-.07-.09-.143-.14-.213-.146-.21-.3-.414-.46-.613-.04-.05-.075-.1-.115-.15a10.59 10.59 0 0 0-.647-.71c.146-.116.305-.21.46-.306.097-.06.19-.125.288-.178a4.57 4.57 0 0 1 .48-.212c.085-.035.168-.078.256-.108a4.98 4.98 0 0 1 .577-.148c.07-.014.137-.038.21-.05zM51.7 40a1.702 1.702 0 0 1-1.865 1.69l-.016-.084c-.02-.107-.037-.214-.06-.32a10.644 10.644 0 0 0-.22-.854c-.007-.02-.01-.042-.018-.063-.095-.308-.21-.61-.333-.907l-.092-.203c-.077-.172-.152-.345-.237-.512a1.68 1.68 0 0 1 1.14-.447c.937 0 1.7.763 1.7 1.7zm-3.135-10l-1.333 2h-4.694l-.267-2h6.295zm-10.923.72l.23-1.72 1.065-8h1.126l1.066 8 .228 1.72.17 1.28H37.47l.172-1.28zM36.73 30l-.268 2h-4.694l-1.333-2h6.294zM29 35c.276 0 .55.024.817.068.074.012.145.037.218.053.192.04.382.083.567.146.09.03.175.075.264.11.16.065.32.13.47.21.1.054.195.12.292.18.155.097.313.19.458.304-.552.55-1.03 1.158-1.442 1.805A2.65 2.65 0 0 0 29 37.3c-1.49 0-2.7 1.212-2.7 2.7 0 .796.352 1.505.9 2h-2.78a5.01 5.01 0 0 1-.303-.94c-.008-.038-.012-.075-.02-.11A4.952 4.952 0 0 1 24 40c0-2.757 2.243-5 5-5zm1.14 3.75c-.47.92-.795 1.91-.974 2.94-1.04.142-1.865-.698-1.866-1.69 0-.937.762-1.7 1.7-1.7.428 0 .828.162 1.14.45zM6.79 45.03L5.434 43h23.577a10.614 10.614 0 0 0 .05 1.623c.013.128.04.25.06.377.035.245.067.49.12.73.013.058.032.113.046.17.153.653.362 1.293.64 1.91L6.79 45.03zM39.5 53c-1.93 0-3.5-1.57-3.5-3.5s1.57-3.5 3.5-3.5 3.5 1.57 3.5 3.5-1.57 3.5-3.5 3.5zm9.404-8.196c-.022.157-.062.31-.092.467a9.79 9.79 0 0 1-.18.8c-.045.164-.105.322-.16.482a9.483 9.483 0 0 1-.285.75c-.06.14-.13.277-.2.415-.155.31-.313.617-.5.907a9.42 9.42 0 0 1-1.465 1.766l-.046.043a9.663 9.663 0 0 1-3.005 1.896A4.46 4.46 0 0 0 44 49.5c0-2.48-2.02-4.5-4.5-4.5S35 47.02 35 49.5a4.46 4.46 0 0 0 1.03 2.83 9.648 9.648 0 0 1-3.01-1.903l-.04-.033a9.387 9.387 0 0 1-1.477-1.787 9.725 9.725 0 0 1-.492-.897c-.07-.14-.14-.277-.2-.42a9.186 9.186 0 0 1-.282-.737c-.055-.163-.116-.324-.163-.49a9.182 9.182 0 0 1-.176-.787c-.032-.16-.072-.316-.094-.476A9.36 9.36 0 0 1 30 43.5c0-.345.022-.684.058-1.02.01-.104.03-.207.046-.31.032-.226.068-.45.115-.67.024-.118.055-.236.086-.354a9.493 9.493 0 0 1 .292-.94 8.99 8.99 0 0 1 .254-.614c.042-.092.08-.185.125-.276a9.09 9.09 0 0 1 .417-.755c.016-.027.03-.056.046-.082.174-.28.363-.545.563-.803.044-.056.093-.108.138-.163.158-.193.32-.38.492-.562.075-.078.156-.153.234-.23.19-.186.38-.37.585-.54l.108-.08c.075-.06.154-.116.23-.173.26-.196.527-.377.804-.545l.068-.042c.28-.166.57-.32.863-.456.04-.018.078-.038.118-.057l.208-.095a9.28 9.28 0 0 1 1.2-.398c.307-.083.62-.15.937-.2a6.64 6.64 0 0 1 .31-.048c.8-.102 1.61-.102 2.41 0 .104.013.206.03.31.047a9.4 9.4 0 0 1 .94.2c.41.11.814.238 1.2.4l.202.093.12.06c.294.135.58.286.857.45a9.313 9.313 0 0 1 .846.566c.58.435 1.106.932 1.573 1.483.435.513.81 1.076 1.13 1.674a10.432 10.432 0 0 1 .395.848c.068.166.135.332.193.502.037.107.067.217.1.326.143.47.256.948.326 1.44l.042.308c.037.334.062.672.062 1.016 0 .443-.036.877-.096 1.304zm23.307.227l-23.14 2.78c.287-.636.503-1.298.66-1.974.006-.034.018-.067.026-.102.056-.255.092-.516.13-.776.014-.11.04-.22.052-.334a10.517 10.517 0 0 0 .05-1.624h23.576l-1.354 2.03z"/></symbol><symbol id="building-insurance" viewBox="0 0 80 80"><path fill="currentColor" stroke="currentColor" stroke-miterlimit="10" d="M34.5 49.5h12v17h-12z"/><path fill="none" stroke="currentColor" stroke-width="3" stroke-linecap="round" stroke-linejoin="round" stroke-miterlimit="10" d="M64.29 35.982l2.342 2.465 4.32 4.572c1.033.977.92 1.898.76 2.304-.163.406-.653 1.176-2.12 1.176H63.5v22h-47v-22h-4.97c-1.464 0-1.96-.772-2.126-1.18-.166-.406-.288-1.285.758-2.307L38.03 13.928a3.63 3.63 0 0 1 2.56-1.062c.94 0 1.824.343 2.49.976l1.63 1.703 1.21 1.327.453.472L64.29 35.982z"/><path fill="none" stroke="currentColor" stroke-width="3" stroke-miterlimit="10" d="M57.06 28.502a28.535 28.535 0 0 1 2.22-2.878c2.733-3.135 4.742-8.36 2.425-12.155-1.81-2.97-6.4-5.095-9.01-4.964 0 0 1.827 2.22 1.435 4.7-.37 2.354-2.62 5.47-4.635 7.457l7.566 7.84zm2.573 2.658c.746-1.244 1.485-2.215 1.485-2.215s3.07-3.722 4.244-7.38c0 0 2.35 3.135 1.96 6.792-.24 2.234-1.4 5.018-3.492 7.147l-4.197-4.344z"/><path fill="#fff" stroke="currentColor" stroke-miterlimit="10" d="M53.902 9.227s1.07 1.742.678 4.223c-.37 2.353-2.687 5.673-4.7 7.66-.11.108-.308.314-.416.416-2.09 1.96-4.146 3.597-4.276 6.666-.078 1.827.447 5.098 3.265 7.64 2.21 1.995 4.918 2.924 6.747 2.924 0 0-1.76-3.314-.99-6.103.362-1.31.98-2.72 2.066-4.346.602-.902 1.486-1.91 2.373-2.93 2.732-3.133 4.936-7.422 2.62-11.218-1.813-2.97-4.756-5.063-7.368-4.933zm7.352 20.051s3.09-3.146 4.266-6.803c0 0 2.01 2.77 1.618 6.426-.24 2.236-1.514 4.346-3.606 6.474-1.332 1.356-2.61 2.842-4.695 3.503 0 0-.938-1.78-.546-4 .182-1.03.833-2.31 1.48-3.385.745-1.243 1.484-2.214 1.484-2.214z"/></symbol><symbol id="car-insurance" viewBox="0 0 80 80"><path fill="currentColor" d="M57.11 40.52L53 42.7V46h14v-4.174l-2.69-3.4zM13 42v4h14v-3.3l-4.015-2.14-7.294-2.134-2.69 3.4zm45.54-7l6.66-1.11-.237-.58c-.045-.11-1.103-2.677-1.536-3.596a87.22 87.22 0 0 1-.688-1.52c-2.49-5.578-4.484-8.073-4.858-8.516l-.075-.09-.11-.047c-.327-.14-1.636-.462-2.197-.54l-31.073.005c-.506.076-1.798.392-2.127.537l-.176.128c-.934 1.064-2.53 4.055-4.882 9.144l-.42.9c-.436.927-1.768 3.56-1.768 3.56l-.307.607L21.5 35h37.04zm-40.81-4.86l.42-.906c2.718-5.884 4.024-8.05 4.647-8.812A17.76 17.76 0 0 1 24.5 20l30.927-.005c.415.06 1.412.31 1.774.427 1.01 1.233 2.788 4.064 4.625 8.18.29.647.53 1.18.697 1.54.3.633.93 2.136 1.276 2.968l-5.34.89-36.876.007-5.33-.888a192.23 192.23 0 0 0 1.477-2.98zM22.69 56H39v-6H19.69l3 6zM38 55H23.31l-2-4H38v4zm3 1h16.34l2.398-6H41v6zm1-5h16.262l-1.6 4H42v-4z"/><path fill="currentColor" d="M80 25H69.402l-1.066 1.066c-4.44-9.268-6.338-11.212-7.718-11.902a11.085 11.085 0 0 0-3.9-1.155l-.08-.01-33.22.002-.185.013c-1.798.193-3.096.86-3.715 1.18l-.136.07c-1.905.952-3.894 4.1-7.573 12.007L10.534 25H0v10h7.82c-.912 2.028-1.602 3.58-1.602 3.58L6 39.068v27.14L7.793 68h7.414L17 66.207V62.98L63 63v3.207L64.793 68h7.414L74 66.207V39.104l-.19-.46S73.153 37.06 72.284 35H80V25zM3 28h6.293l1.816 1.817.737 1.13-.48 1.053H3v-4zm10.492 1.758l.275-.59.118-.253.225-.48.287-.617.062-.13c1.138-2.452 4.603-9.91 6.274-10.746l.152-.078c.495-.255 1.417-.727 2.595-.86L56.468 16c.074.008.143.02.215.03.1.014.202.026.297.043.068.012.13.027.197.04.093.02.187.037.275.058.07.018.136.038.204.056.075.02.154.04.225.06.085.026.162.05.24.078.046.015.097.03.14.046.48.17.826.342 1.016.437.68.34 2.47 2.285 6.838 11.534a88.356 88.356 0 0 1 1.042 2.294L68.17 33a594.854 594.854 0 0 1 2.57 6.078l.26.622v13.718l-1.88 5.638-5.66.944H16.54l-.04-.007-5.62-.937L9 53.418v-13.71l.88-1.973.052-.114.202-.45c.066-.15.136-.302.206-.46.357-.796.756-1.68 1.168-2.592L12.013 33h.008l.965-2.138c.167-.365.33-.72.485-1.054l.022-.05zM77 32h-8.174c-.185-.428-.368-.847-.548-1.256l.556-.934 1.81-1.81H77v4z"/></symbol><symbol id="construction-insurance" viewBox="0 0 80 80"><path fill="none" stroke="currentColor" stroke-width="3" stroke-miterlimit="10" d="M14.392 49.595l-3.442.82-1.066 2.868-.082 4.344s.246 3.033 1.64 3.525c1.393.49 19.506 2.622 25.16 2.622 5.657 0 26.31-1.475 28.032-2.13 1.72-.656 2.786-1.476 2.786-3.853 0-2.376-.245-5.162-.245-5.162L66.11 50.25l-3.033-1.146s-1.475-9.918-2.46-12.13c-.983-2.214-5.163-9.836-9.834-11.475 0 0-.902-3.198-2.87-3.607-1.966-.41-7.048-1.476-7.048-1.476l-.655-3.36h-3.115l-.492 3.524-7.294 1.394s-2.214.328-2.46 3.36c0 0-7.95 5.574-9.835 11.148-1.885 5.573-2.377 8.114-2.623 13.113z"/><path fill="none" stroke="currentColor" stroke-miterlimit="10" d="M14.392 49.595s-.41 4.262.82 5.41c1.23 1.147 3.524 1.31 3.524 1.31l40.08.083s2.457-.164 3.195-1.312c.74-1.146 1.067-3.196 1.067-5.982m-22.703-28.85l.655 8.933m-3.853-8.852l-.82 9.016m13.852-3.77s1.23 17.377 1.23 18.934m-24.016-19.18s-1.64 16.31-1.475 19.016"/><path fill="none" d="M7.912 8.252h66.495v63.69H7.912z"/><path fill="#fff" stroke="currentColor" stroke-linecap="round" stroke-linejoin="round" stroke-miterlimit="10" d="M53.65 34.622c.985.915 1.66.515 2.35-.24a26.943 26.943 0 0 1 2.312-2.235c.932-.805 2.1-1.172 3.2-.616a18.76 18.76 0 0 1 3.735 2.485c.725.62.878 1.61.19 2.51-.487.64-.384 1.225.18 1.775.77.75 1.524 1.514 2.28 2.276.684.688 1.356.657 2.027-.014 1.78-1.78 3.564-3.558 5.34-5.342.662-.663.735-1.33 0-2.01-.436-.4-.875-.806-1.253-1.26-.802-.962-1.603-1.523-3.023-1.08-1.27.397-2.587-.545-2.515-1.8.158-2.766-1.363-4.56-3.12-6.325-4.17-4.19-8.555-8.09-14.068-10.468-1.92-.827-3.922-1.364-6.04-1.105-.36.045-.684.407-1.025.623.31.287.573.69.94.844 4.323 1.82 7.458 4.634 8.082 9.564.187 1.48-.055 2.828-1.073 3.92a4.82 4.82 0 0 1-.407.387c-.62.526-1.16 1.146-1.735 1.72-.58.578-1.26 1.105-.654 2.085.078.125-.16.53-.34.716-3.802 3.895-7.557 7.838-11.47 11.62-1.04 1.006-2.574 1.505-3.88 2.24-.695.39-1.493.673-2.064 1.2A4536.123 4536.123 0 0 0 11.544 64.77c-.45.422-.86.93-1.155 1.47-.667 1.224-.5 2.113.48 3.105 1.225 1.237 2.46 2.463 3.69 3.693 1.354 1.35 2.507 1.47 3.998.262.827-.67 1.536-1.492 2.267-2.275 5.73-6.143 11.462-12.282 17.156-18.458.552-.598.86-1.428 1.252-2.163.588-1.1.928-2.43 1.762-3.283 4.114-4.2 8.356-8.277 12.656-12.498"/><path fill="currentColor" d="M10.39 66.24l-.355 2 4.96 5.298 1.915.79 1.648-1.03 19.88-20.61 2.14-4.96-4.282-4.17-4.676 2.532z"/><path fill="#fff" stroke="currentColor" stroke-width="3" stroke-linecap="round" stroke-linejoin="round" stroke-miterlimit="10" d="M58.228 32.147c.93-.805 2.1-1.172 3.2-.616 1.33.67 2.605 1.517 3.734 2.485.726.62.878 1.61.19 2.51-.487.64-.383 1.225.182 1.775.77.75 1.523 1.514 2.28 2.276.682.688 1.354.657 2.025-.014 1.78-1.78 3.563-3.558 5.34-5.342.66-.663.735-1.33 0-2.01-.436-.4-.875-.806-1.253-1.26-.804-.962-1.604-1.523-3.025-1.08-1.268.397-2.586-.545-2.515-1.8.16-2.766-1.362-4.56-3.12-6.325-4.17-4.19-8.555-8.09-14.068-10.468-1.92-.827-3.922-1.364-6.04-1.105-.36.045-.684.407-1.025.623.31.287.573.69.94.844 4.324 1.82 7.458 4.634 8.082 9.564.188 1.48-.054 2.828-1.073 3.92-.123.133-.764.656-.91.78"/></symbol><symbol id="contents-insurance" viewBox="0 0 80 80"><path fill="currentColor" d="M72.5 32h-.35l-1.15.33V21.5c0-3.033-2.468-5.5-5.5-5.5h-22a5.5 5.5 0 0 0-3 .892 5.5 5.5 0 0 0-3-.892h-23A5.507 5.507 0 0 0 9 21.5v10.83L7.85 32H7.5A5.507 5.507 0 0 0 2 37.5v21a5.51 5.51 0 0 0 4.38 5.386L7.42 67h11.16l1-3h40.84l1 3h11.16l1.04-3.114A5.51 5.51 0 0 0 78 58.5v-21c0-3.033-2.468-5.5-5.5-5.5zM75 58.5c0 1.378-1.12 2.5-2.5 2.5h-4.554A3.49 3.49 0 0 0 69 58.5v-15c0-1.93-1.57-3.5-3.5-3.5H63v-.5c0-1.378 1.12-2.5 2.5-2.5l2.5-.707v.013L72.567 35A2.503 2.503 0 0 1 75 37.5v21zm-70-21A2.503 2.503 0 0 1 7.433 35L12 36.307l2.362.675.138.02c1.38 0 2.5 1.122 2.5 2.5v.5h-2.5c-1.93 0-3.5 1.57-3.5 3.5v15c0 .98.403 1.864 1.053 2.5H7.5A2.505 2.505 0 0 1 5 58.5v-21zM14.5 19h23c.176 0 .35.02.52.056.033.007.064.022.097.03a2.5 2.5 0 0 1 .39.13c.044.02.084.046.127.068.106.055.212.113.31.183.048.034.09.075.136.112.085.07.17.142.245.223.415.447.675 1.04.675 1.697V40H18v-.5c0-1.906-1.53-3.46-3.428-3.5L12 35.267V21.5c0-1.378 1.12-2.5 2.5-2.5zM68 35.273L65.428 36A3.504 3.504 0 0 0 62 39.5v.5H41V21.5c0-.656.26-1.25.675-1.697.076-.08.16-.154.245-.224.045-.038.088-.08.136-.113.098-.07.204-.128.31-.183.043-.022.083-.05.128-.07a2.5 2.5 0 0 1 .39-.128c.032-.008.063-.023.096-.03a2.51 2.51 0 0 1 .52-.056h22c1.38 0 2.5 1.122 2.5 2.5v13.773zM70.807 62l-.667 2h-6.28l-.667-2h7.614zM65 61H14c-1 0-2-1.122-2-2.5V48h56v10.5c0 1.378-1 2.5-3 2.5zm-48.193 1l-.667 2H9.86l-.667-2h7.614z"/></symbol><symbol id="employers-liability-insurance" viewBox="0 0 80 80"><g stroke="currentColor" stroke-miterlimit="10"><path fill="none" stroke-linecap="round" stroke-linejoin="round" d="M8.343 24.632s9.522 19.597 23.25 19.597 26.24-18.27 26.24-18.27"/><path fill="currentColor" d="M38 47.5H27a3 3 0 0 1 0-6h11a3 3 0 0 1 0 6z"/><path fill="none" stroke-width="3" d="M57.675 27.19c.367 0 .16 1.185.16 1.185l1.66 22.83s2.544 2.357 3.32 2.435c0 0 3.987-1.77 4.43-.885.3.6 3.148.998 4.95 1.19.853.092 1.295.315 1.472.138.177-.177-.124-.46-.344-1.28-1.664-6.19-8.84-32.806-9.62-34.37-.887-1.772-2.88-5.537-5.98-5.537s-4.335 2.7-4.335 2.7c-4.828-2.014-12.142-3.298-20.33-3.298-14.538 0-26.324 4.048-26.324 9.042 0 1.314.03 1.705 1.092 3.218l5.942 34.95c-1.75 1.053-2.162 1-2.162 2.3 0 3.984 9.405 7.214 21.006 7.214s21.006-3.23 21.006-7.215c0-1.228-.296-1.175-1.873-2.188l5.413-31.165s.15-1.266.517-1.266z"/><path fill="none" d="M52.417 16.27c3.746 1.563 7.63 3.552 7.63 5.734 0 4.994-11.785 9.042-26.324 9.042s-26.258-2.87-26.598-7.853"/></g></symbol><symbol id="legal-protection" viewBox="0 0 80 79"><path fill="currentColor" d="M72 39.5C72 23.233 58.767 10 42.5 10S13 23.233 13 39.5c0 2.322.27 4.626.805 6.866l-4.034 2.33a4.603 4.603 0 0 0-2.133 2.712 4.42 4.42 0 0 0 .415 3.476l.5.866a4.503 4.503 0 0 0 3.898 2.23c.81 0 1.613-.215 2.32-.625l3.02-1.743a30.022 30.022 0 0 0 6.31 6.946c-.066.31-.1.625-.1.942V70h37v-6.5a4.48 4.48 0 0 0-.1-.94C67.87 56.984 72 48.45 72 39.5zm-3.05 1.59c-.02.366-.06.73-.097 1.094-.016.15-.025.304-.042.456-.06.495-.133.988-.22 1.478l-.007.037a26.7 26.7 0 0 1-4.842 11.17l-.05.07c-.273.365-.558.72-.85 1.073a28.347 28.347 0 0 1-1.304 1.45 25.93 25.93 0 0 1-3.07 2.726c-.283.213-.57.42-.863.625A2.473 2.473 0 0 0 56.5 61H53v-1.5c0-1.38-1.122-2.5-2.5-2.5h-16c-1.378 0-2.5 1.12-2.5 2.5V61h-3.5c-.396 0-.77.102-1.103.268a22.905 22.905 0 0 1-1.3-.965 25.898 25.898 0 0 1-1.837-1.6c-.155-.146-.31-.29-.462-.44-.218-.22-.428-.445-.64-.67-.188-.203-.377-.407-.56-.616a26.52 26.52 0 0 1-.744-.878c-.123-.153-.238-.31-.356-.463a25.19 25.19 0 0 1-.564-.753c-.108-.15-.212-.304-.317-.457a27.84 27.84 0 0 1-.81-1.255 26.59 26.59 0 0 1-.447-.776l19.02-10.98 3 5.195-.433.25a2.485 2.485 0 0 0-1.165 1.52 2.478 2.478 0 0 0 .25 1.896 2.497 2.497 0 0 0 3.415.915l13.855-8a2.485 2.485 0 0 0 1.165-1.516 2.48 2.48 0 0 0-.25-1.898c-.664-1.15-2.26-1.583-3.415-.915l-.433.25-2.5-4.33.36-.208a2.606 2.606 0 0 0 1.214-1.537c.19-.655.11-1.337-.226-1.92l-1-1.73c-.662-1.148-2.298-1.56-3.487-.873l-.36.208-2.5-4.33.433-.25a2.502 2.502 0 0 0 .915-3.416c-.663-1.148-2.26-1.583-3.415-.914l-13.856 8c-.578.333-.992.872-1.165 1.517s-.084 1.32.25 1.897a2.497 2.497 0 0 0 3.415.915l.432-.25 2.5 4.33-18.335 10.586c-.1-.35-.2-.7-.286-1.053-.035-.143-.073-.284-.106-.428-.11-.487-.2-.978-.282-1.47-.026-.158-.06-.314-.082-.472a26.46 26.46 0 0 1-.168-1.47c-.014-.16-.037-.318-.05-.477A26.644 26.644 0 0 1 16 39.5C16 24.888 27.888 13 42.5 13S69 24.888 69 39.5c0 .532-.018 1.063-.05 1.59zM58 67H27v-3.5c0-.118.018-.234.045-.35.007-.027.017-.053.025-.08A1.498 1.498 0 0 1 28.5 62h28a1.498 1.498 0 0 1 1.43 1.07c.007.027.018.053.025.08.027.116.045.232.045.35V67zM18.843 51.54l-5.572 3.218c-.732.423-1.722.18-2.12-.508l-.5-.866a1.45 1.45 0 0 1-.13-1.145c.117-.398.383-.734.75-.947l24.61-14.208.3.52 1.7 2.945-19.036 10.99zM32.38 31.023l-.433.25c-.698.402-1.652.14-2.05-.55a1.496 1.496 0 0 1 .55-2.047l13.856-8a1.5 1.5 0 0 1 2.05.548 1.503 1.503 0 0 1-.55 2.05l-6.928 4-6.495 3.75zm6.995-2.884l5.63-3.25 2.833 4.906 3.167 5.486 2.5 4.33-5.63 3.25-5.63 3.25-3-5.197-.187-.325-5.313-9.2 5.63-3.25zM54.87 39.976l.433-.25c.227-.13.486-.202.748-.202a1.51 1.51 0 0 1 1.303.75c.2.35.252.752.15 1.14a1.49 1.49 0 0 1-.7.91l-13.856 8c-.7.403-1.65.14-2.05-.55a1.49 1.49 0 0 1-.15-1.136 1.49 1.49 0 0 1 .7-.913l6.928-4 6.495-3.75z"/></symbol><symbol id="liability-insurance" viewBox="0 0 80 80"><path fill="currentColor" d="M57.045 53.908C62.1 45.985 65 36.724 65 28.5c0-7.098-3.912-10.984-7.194-12.995a19.025 19.025 0 0 0-2.984-1.48c.118-.48.178-.99.178-1.525 0-3.06-2.02-4.957-3.894-5.425L40.52 7l-1.18 2.465L36.973 7h-8.596l-.482.075C26.02 7.543 24 9.44 24 12.5c0 .536.06 1.046.178 1.526-1.053.413-2.052.91-2.984 1.48C17.912 17.515 14 21.4 14 28.5c0 15.666 10.21 31.415 18.01 36.063C23.675 66.805 22 68.456 22 70.5V73h35v-2.5c0-2.042-1.67-3.69-9.98-5.93 3.292-1.924 6.858-5.7 10.025-10.662zM17.078 27.06c.014-.133.026-.267.042-.396.05-.4.12-.792.203-1.174.045-.2.1-.396.153-.59.05-.186.11-.368.17-.55a11.568 11.568 0 0 1 .532-1.33c.207-.43.434-.834.68-1.213.02-.033.04-.067.064-.1.23-.35.478-.674.733-.98a11.325 11.325 0 0 1 .854-.92c.25-.24.507-.478.784-.703.078-.063.157-.123.236-.184.375-.29.768-.57 1.19-.83.01-.005.016-.01.023-.015l.064-.037c.247-.15.503-.294.764-.433l.14-.074a16.624 16.624 0 0 1 1.767-.785l.255-.095A17.863 17.863 0 0 1 28 16h8.353l-2.144 8.218 8.692 12.8-3.868-12.978L42.817 16H51a16.762 16.762 0 0 1 2.268.65c.084.03.17.063.255.095a17.914 17.914 0 0 1 .96.397c.274.124.543.253.806.39.046.023.093.05.14.073.26.14.516.283.763.433.02.013.042.024.064.037l.022.014c.422.26.815.54 1.19.83.08.06.16.12.237.184a12.633 12.633 0 0 1 1.386 1.329 11.318 11.318 0 0 1 .985 1.274c.023.033.043.067.065.1a10.99 10.99 0 0 1 1.212 2.544 11.668 11.668 0 0 1 .32 1.14c.086.382.155.773.205 1.174.016.13.028.263.042.396A15 15 0 0 1 62 28.5c0 .506-.014 1.013-.036 1.52-.01.236-.03.477-.046.715-.018.266-.033.533-.057.8-.024.29-.058.583-.09.876-.025.216-.047.432-.076.648-.038.3-.084.6-.13.9-.034.22-.066.44-.103.66-.046.27-.098.543-.15.816a36.282 36.282 0 0 1-.295 1.418c-.08.357-.164.714-.255 1.07l-.078.3A44.666 44.666 0 0 1 60 40.55V40H19v.552c-.086-.27-.174-.538-.255-.81-.057-.187-.108-.376-.162-.565a43.58 43.58 0 0 1-.242-.874c-.062-.237-.12-.474-.18-.712l-.18-.752a53.096 53.096 0 0 1-.308-1.494 38.568 38.568 0 0 1-.26-1.528c-.036-.253-.074-.506-.107-.76a44.7 44.7 0 0 1-.093-.81c-.025-.233-.052-.467-.072-.7-.03-.315-.047-.63-.067-.944-.01-.192-.028-.384-.037-.576A34.57 34.57 0 0 1 17 28.5a15 15 0 0 1 .078-1.44zM28.572 10h5.12l2.5 5H29.05l-.452-.09c-.04-.01-.64-.14-1.094-.726l-.042-.062c-.02-.026-.033-.06-.05-.086a2.282 2.282 0 0 1-.264-.58c-.016-.053-.035-.1-.048-.155-.062-.245-.1-.51-.1-.8 0-1.878 1.3-2.41 1.572-2.5zM52 12.5c0 .285-.038.544-.098.787-.016.07-.04.13-.06.192-.06.18-.134.348-.228.5-.46.74-1.17.92-1.212.93l-.452.09h-6.877l.847-5h6.508c.27.09 1.572.622 1.572 2.5zm-5.393 48.765c-.09.066-.182.125-.273.188-.113.078-.226.156-.337.23-.192.122-.382.24-.57.347l-.01.006a9.475 9.475 0 0 1-1.193.582l-.107.042c-.577.216-1.123.34-1.617.34h-6c-.438 0-.915-.098-1.42-.268l-.293-.118c-1.08-.435-2.25-1.185-3.458-2.194a26.858 26.858 0 0 1-.617-.54c-.21-.19-.42-.383-.63-.588l-.02-.018c-2.13-2.08-4.35-4.928-6.344-8.274h31.56c-2.734 4.593-5.898 8.245-8.673 10.265zM43.772 65.3c.037.088.064.19.093.29.027.09.055.177.072.272.037.195.063.403.063.638v.39l.38.095c3.285.822 6.83 1.966 8.56 2.812.138.072.262.14.37.203H25.69c.107-.062.23-.13.37-.202 1.725-.846 5.273-1.99 8.56-2.813l.38-.095v-.39c0-.232.025-.438.06-.63.02-.103.05-.197.08-.293.025-.092.05-.187.083-.27.053-.127.12-.247.192-.363.024-.04.045-.087.07-.123l.02-.027c.413-.556.932-.75 1.07-.793h5.85a2.3 2.3 0 0 1 1.188.997c.058.097.115.196.16.303zm-24.62-24.267c-.005-.01-.007-.022-.01-.033h40.717a49.44 49.44 0 0 1-1.525 4h-37.67a49.37 49.37 0 0 1-1.475-3.846c-.013-.04-.025-.08-.04-.12zM21.105 46h36.788a52.04 52.04 0 0 1-2.037 4H23.143a52.042 52.042 0 0 1-2.037-4z"/></symbol><symbol id="motorbike-insurance" viewBox="0 0 80 79"><path fill="currentColor" d="M26.74 26.404L25 29.882v2.978L34.342 36H36v-.01l1 .01v-4.186l-2.805-3.253zm19.065 2.156L43 31.815V36h2.58L55 32.86v-2.978l-1.74-3.478z"/><path fill="currentColor" d="M69 15h-9.333l-.667.5v-.123L48.45 6h-16.9L21 15.377v.123l-.667-.5H11v10h5.36l-.63.727 2.51 10.053 2.902 2.898 3.027 21.2L33.668 67H34v2.707L36.293 72h7.414L46 69.707V67h.333l9.496-7.122 3.026-21.2 2.902-2.9 2.513-10.05-.63-.728H69V15zM34 54v9.5l-7.034-5.276-2.796-19.57 7.83 6.09V54h2zm14 0v-9.256l7.83-6.09-2.796 19.57L46 63.5V54h2zm-1-1H33V41.707L34.707 40h10.586L47 41.707V53zm9.163-15.87L48 43.48v-2.187L45.707 39H34.293L32 41.293v2.186l-8.163-6.35-2.886-2.886-1.887-7.554L24 22.74v-5.305L35.35 25h9.3L56 17.435v5.305l4.938 3.95-1.89 7.554-2.885 2.885zM47.31 9l8.374 7.443L44.35 24h-8.7l-11.334-7.557L32.69 9h14.62zM14 18h5.293L22 20.707V22h-8v-4zm8.074 5l-.014.012.01-.012h.004zm35.852 0h.004l.01.012-.014-.012zM66 22h-8v-1.293L60.707 18H66v4z"/></symbol><symbol id="rental-guarantee" viewBox="0 0 80 80"><path fill="currentColor" d="M72.484 38.062l3.24-1.69c2.35-1.227 2.438-2.983 2.367-3.683-.068-.668-.463-2.282-2.792-3.044L65 24.528V24.5C65 14.85 57.12 7 47.453 7c-8.245 0-15.29 5.638-17.108 13.545-2.69.713-5.167 2.11-7.05 3.995-3.97 3.968-5.596 9.72-4.274 14.89L1 58.063V69h12v-5h4v-4h4v-4h3.132l5.627-5.76c3.345 1.07 7.026.96 10.247-.264a3.32 3.32 0 0 0 .58 1.463c.992 1.388 2.9 1.743 4.88.715l3.08-1.607 7.398 14.186 23.94-12.487-7.4-14.185zM44.078 49.495a2.99 2.99 0 0 1-.49.204 1.31 1.31 0 0 1-.352.064c-.158 0-.196-.052-.208-.07l-.003-.007a.32.32 0 0 1-.04-.105c-.006-.028-.006-.07-.01-.108 0-.033-.005-.062-.003-.1 0-.034.007-.08.01-.117a1.816 1.816 0 0 1 .084-.41c.022-.077.038-.15.068-.24l.595-3.272.028-.025c.097-.085.195-.17.288-.264.342-.342.66-.7.96-1.072.08-.1.152-.207.23-.31.218-.286.428-.575.62-.875.064-.1.12-.198.18-.298.202-.333.392-.673.564-1.02l.09-.193c.195-.41.37-.83.52-1.257.004-.01.01-.02.014-.033.09.006.183.01.276.01 1.676 0 3.305-.28 4.848-.787.8.508 1.71.787 2.652.787 2.757 0 5-2.243 5-5 0-.357-.06-.73-.158-1.13l.012-.016-.072-.246a5.002 5.002 0 0 0-3.09-3.295l-.36-.13-.014.02c-3.205-.91-6.103 1.435-6.298 4.474-.13.032-.26.06-.39.087-.217.045-.433.09-.65.12a11.244 11.244 0 0 1-.992.086c-.004-.11-.023-.22-.03-.332a13.588 13.588 0 0 0-.078-.85 13.687 13.687 0 0 0-.332-1.716c-.1-.384-.22-.762-.353-1.135l-.057-.164a13.3 13.3 0 0 0-.494-1.15c-.014-.03-.024-.06-.038-.088l1.075-5.928c.06-.173.115-.38.174-.606.192-.73.43-1.64 1.082-1.98.625-.327 1.754-.032 2.55.23.165.053.316-.1.362-.096L57.99 24h.05L62 26.348v.006l12.102 6.03.107.053.024.018c.042.012.062.025.1.038.135.043.25.088.344.133.014.007.023.014.038.02.09.046.165.092.22.134.002 0 .002.002.003.004.12.094.163.172.166.21.012.12-.182.41-.77.718l-3.076 1.605-2.822 1.472 7.4 14.186-5.32 2.774-4.624-8.866-7.98 4.162 4.624 8.866-5.32 2.775-7.4-14.188-3.665 1.912-2.075 1.083zM22.796 53H18v4h-4v4h-4v5H4v-6.713l18.176-18.293c.038.085.085.164.124.248.118.252.238.502.372.747.086.157.182.31.273.462.12.202.24.404.373.602.14.207.292.404.443.602.107.14.206.283.318.42.276.335.567.66.876.97.276.276.568.537.87.788a16.762 16.762 0 0 0 .86.66c.217.155.44.304.665.445l.08.05c.276.17.55.336.837.486l-.7.715-4.77 4.81zM45.64 29.837c.214.422.4.856.566 1.3l.043.12c.144.4.267.81.37 1.224.016.066.033.13.048.196.092.39.16.785.212 1.18.01.083.027.164.036.246.054.464.084.93.084 1.398 0 .363-.022.723-.053 1.08-.014.17-.038.337-.06.505-.022.165-.044.33-.072.495-.04.227-.083.454-.134.68l-.066.268a11.68 11.68 0 0 1-.22.788 12.67 12.67 0 0 1-.52 1.354l-.052.107c-.172.372-.365.73-.57 1.08-.057.094-.11.188-.168.28-.186.297-.39.584-.602.865-.074.1-.143.202-.22.3-.29.36-.593.707-.923 1.037-.125.123-.163.232-.29.35l-.05.13v.002c-1 .365-.93.708-1.375 1.013l-.537.302c-3.28 2.02-7.545 2.398-11.157.974l-.316-.118-.27-.12a12.728 12.728 0 0 1-1.952-1.1c-.05-.034-.098-.073-.148-.108-.25-.177-.495-.358-.73-.552-.292-.245-.58-.5-.853-.773-.308-.31-.598-.635-.872-.972-.046-.056-.083-.117-.128-.174-.224-.287-.442-.58-.64-.885-.028-.044-.05-.09-.08-.134-.204-.327-.4-.662-.575-1.01l-.045-.097a12.833 12.833 0 0 1-.482-1.098c-1.704-4.466-.77-9.718 2.823-13.31a12.364 12.364 0 0 1 6.4-3.408c-.04.442-.06.85-.06 1.246 0 1.675.28 3.302.788 4.844A4.947 4.947 0 0 0 32 32c0 2.757 2.243 5 5 5 .362 0 .736-.06 1.14-.16l.016.012.247-.074a5.007 5.007 0 0 0 3.288-3.095l.13-.36-.026-.02a4.82 4.82 0 0 0 .206-1.307c0-2.622-2.037-4.76-4.684-4.958A10.38 10.38 0 0 1 37 24.5c0-.387.026-.79.08-1.22a12.39 12.39 0 0 1 6.26 3.38c.9.902 1.645 1.92 2.224 3.017l-.002.01.078.15zm3.41 6.047c.233-.03.462-.077.69-.122.197-.04.395-.076.59-.126.227-.06.45-.13.674-.203.187-.06.375-.117.56-.186.223-.085.44-.185.66-.285.172-.078.348-.15.518-.238.154-.08.3-.17.45-.254.105-.06.208-.12.31-.184.12-.072.24-.14.354-.215.087-.056.17-.12.254-.18.144-.1.28-.208.417-.315.122-.095.25-.18.368-.28.097-.082.188-.174.284-.26.19-.17.378-.344.556-.527.036-.036.075-.07.11-.106.07-.076.133-.16.204-.238.172-.19.337-.387.496-.59.048-.06.103-.115.15-.178a4.004 4.004 0 0 1 2.043 2.244c-.043.05-.087.1-.13.153-.26.31-.53.607-.812.894-.077.077-.15.16-.23.234-.037.037-.078.067-.115.103-.273.26-.554.507-.844.744-.152.122-.307.238-.463.354-.02.016-.04.03-.06.044A14.575 14.575 0 0 1 54.5 37.18c-.14.076-.275.155-.416.227-.255.13-.515.252-.778.367-.044.02-.09.037-.134.055l-.19.077c-.244.1-.488.2-.74.286v.015c-.198.068-.404.113-.605.173-.3.09-.598.19-.906.26-.223.05-.453.075-.68.115-.3.054-.6.118-.908.152-.237.028-.478.027-.717.042-.298.018-.593.048-.895.048.003-.008.003-.016.005-.023.108-.405.196-.813.266-1.228h.002l.015-.105c.018-.11.033-.045.048-.155.03-.22.06-.487.078-.487h.002c.01 0 .01-.418.018-.54.006-.1.024-.284.028-.384.154-.007.302-.076.453-.088.203-.017.407-.076.608-.104zm-1.566-25.882C55.482 10.02 62 16.516 62 24.5v.19c0 .19-.017.38-.023.57l-3.005-1.488c-.377-6.064-5.36-10.83-11.468-10.83-5.524 0-10.15 4.058-11.252 9.058h-.002l-.004.08c-.026.125-.04.28-.062.408l-.016.107-.007.058a12.18 12.18 0 0 0-.16 1.845c0 1.074.17 2.125.458 3.136l-.005.007c.02.07.047.136.068.206.24.78.56 1.527.957 2.237a9.264 9.264 0 0 0 .583.939c.114.167.237.33.36.49.108.137.21.28.322.412.238.282.492.55.757.807.087.087.18.167.27.25.222.202.45.395.687.58.053.04.098.087.15.127a4.007 4.007 0 0 1-2.238 2.05l-.148-.126a15.414 15.414 0 0 1-.905-.82c-.076-.075-.157-.147-.23-.226a13.59 13.59 0 0 1-1.203-1.423 14.39 14.39 0 0 1-.428-.606 13.9 13.9 0 0 1-.63-1.034c-.08-.14-.16-.28-.232-.423-.13-.254-.25-.512-.366-.772-.05-.115-.096-.232-.143-.347a15.557 15.557 0 0 1-.28-.72h-.014A14.47 14.47 0 0 1 33 24.5c0-.38.028-.75.057-1.122.018-.216.044-.428.073-.665.884-7.144 6.98-12.695 14.354-12.71zm-3.438 15.952a13.39 13.39 0 0 0-6.81-3.654C38.25 17.563 42.466 14 47.5 14c5.378 0 9.79 4.002 10.406 9.254l-5.698-2.826c-.12-.035-.26-.08-.41-.13-.91-.297-2.394-.65-3.325-.164-1.044.546-1.358 1.74-1.586 2.613-.052.2-.1.382-.17.607l-.88 4.824a13.618 13.618 0 0 0-1.79-2.224zm19.38 31.495l-4.163-7.98 6.207-3.237 4.16 7.98-6.205 3.236z"/><path fill="currentColor" d="M7.59 59.79l-.707-.708L21.025 44.94l.708.706z"/></symbol><symbol id="travel-insurance" viewBox="0 0 80 79"><path fill="currentColor" d="M50.5 31c3.032 0 5.5-2.468 5.5-5.5S53.532 20 50.5 20 45 22.468 45 25.5s2.468 5.5 5.5 5.5z"/><path fill="currentColor" d="M63.525 33.1c.992-2.814 1.46-5.447 1.475-8.243C65 16.665 58.495 10 50.5 10c-5.02 0-9.65 2.66-12.294 7.002C23.178 17.16 11 29.435 11 44.5 11 59.663 23.337 72 38.5 72S66 59.663 66 44.5c0-3.978-.832-7.81-2.475-11.4zM40.402 19.21c.242-.457.512-.89.803-1.305.032-.045.066-.09.1-.135.277-.384.575-.75.892-1.092.022-.024.04-.05.063-.072.338-.36.698-.695 1.075-1.005l.15-.117c.324-.258.662-.498 1.01-.72.083-.05.164-.104.247-.154.81-.486 1.677-.87 2.582-1.14.1-.03.202-.053.303-.08.357-.096.72-.172 1.09-.233.12-.02.243-.042.366-.057.467-.06.938-.1 1.417-.1.793 0 1.566.083 2.314.24 5.235 1.11 9.184 5.895 9.186 11.613a20.89 20.89 0 0 1-.093 1.84l-.012.15c-.19 1.913-.645 3.798-1.397 5.805l-.16.422-.15.08c.024.047.044.097.07.145-1.002 2.492-2.356 4.953-3.865 7.69-1.89 3.428-4.014 7.277-5.883 12.076-1.864-4.973-4.058-8.924-6.012-12.442C41.426 35.088 39 30.72 39 24.858c0-1.97.476-3.827 1.304-5.463l.098-.187zM38 45v13h-9.842c-1.245-3.246-2.1-7.48-2.15-13H38zm-11.99-1c.05-5.52.908-9.754 2.158-13H38v13H26.01zM38 59v9.363c-1.645-.483-6.427-2.453-9.435-9.363H38zm1 0h9.45c-3 6.9-7.803 8.875-9.45 9.362V59zm0-1V45h6.744c1.455 2.762 2.924 5.84 4.204 9.45a27.9 27.9 0 0 1-1.09 3.55H39zm0-14V31.305c1.03 3.328 2.747 6.42 4.623 9.8.518.93 1.052 1.892 1.592 2.895H39zm-1-14h-9.423c3.008-6.886 7.78-8.87 9.423-9.36V30zm-6.356-6.538c-1.405 1.432-2.93 3.534-4.167 6.538h-8.71c4.102-5.567 10.5-9.34 17.783-9.915-1.293.533-3.095 1.53-4.906 3.377zM27.087 31c-1.19 3.265-2.028 7.51-2.077 13H14.013a24.346 24.346 0 0 1 4.055-13h9.02zM14.013 45H25.01c.05 5.49.886 9.735 2.077 13h-9.02a24.346 24.346 0 0 1-4.054-13zm13.464 14c1.237 3.004 2.762 5.106 4.167 6.538 1.81 1.846 3.613 2.844 4.906 3.377-7.284-.576-13.68-4.348-17.782-9.915h8.71zm13.037 9.9c2.387-.985 6.433-3.53 9.038-9.9h8.596c-4.083 5.52-10.424 9.274-17.634 9.9zM49.937 58c.325-.896.618-1.87.878-2.908l.155-.42c1.36-3.706 2.89-6.852 4.382-9.672h7.573a24.28 24.28 0 0 1-4.075 13h-8.913zm12.986-14h-7.04c.47-.87.934-1.716 1.385-2.53 1.328-2.408 2.576-4.673 3.567-6.978C62.16 37.47 62.857 40.72 62.923 44z"/></symbol><symbol id="valuables-insurance" viewBox="0 0 80 80"><path fill="currentColor" d="M62.47 21.377c2.124 0 4.232.55 6.098 1.593l.49-.873c-6.035-3.37-8.203-11.02-4.836-17.053l-.873-.486a12.556 12.556 0 0 1-10.96 6.426c-2.12 0-4.23-.55-6.093-1.59l-.488.873A12.45 12.45 0 0 1 51.077 16H19.18L8.392 33.602 38.5 75.572l30.108-41.97-7.446-12.15c.433-.045.868-.075 1.31-.075zM52.03 19c.484 2.682.095 5.53-1.277 8.106L47.5 32.528 39.383 19H52.03zm-5.413 14H30.383L38.5 19.472 46.617 33zm-9-14L29.5 32.528 21.383 19h16.234zm-20.37 5.89l3.288-5.36L28.617 33H12.383l4.865-8.11zm5.586 23.697L12.47 34h16.634l8.25 34.828-14.522-20.24zM30.133 34h16.735L38.5 69.33 30.132 34zm9.513 34.828L47.896 34H64.53L54.168 48.587l-14.52 20.24zM64.616 33H48.384l3.122-5.203.016.01a12.526 12.526 0 0 1 6.567-5.63l1.665 2.714L64.617 33z"/></symbol><symbol id="watercraft-insurance" viewBox="0 0 80 80"><path fill="currentColor" d="M50.188 20.684c-2.9-3.845-6.19-8.204-9.584-13.498L36 0v12.812c-1.395 2.172-3.157 4.52-5.02 7.002C23.86 29.302 15 41.11 15 57.534v5.54l4.153-3.665c5.518-4.87 13.1-6.033 16.847-6.304v5.38c-5.14.762-11.203 2.34-13.536 5.596l-.464.65v2.802c0 2.34 2.23 7.06 17.166 12.357l.834.296.836-.295C55.77 74.593 58 69.875 58 67.535v-2.578l-.254-.52c-1.45-2.97-5.952-4.933-13.746-5.985v-2.525c4.246.583 9.8 1.176 14.823 1.176.978 0 1.923-.023 2.807-.07l2.37-.122v-2.374c0-15.54-5.794-23.22-13.813-33.85zM40 77.004c-.305-.11-.6-.222-.898-.333a2.415 2.415 0 0 1-.102-.038V65.135c.595-.07.955-.1.96-.103.02.002.41.034 1.04.108v11.492l-.1.038c-.298.11-.594.224-.9.333zM29.166 71.95c-1.304-.828-2.344-1.634-3.057-2.38 2.247-2.675 8.634-3.863 11.89-4.31v10.98c-2.63-1.048-6.128-2.614-8.834-4.29zm21.656.007c-2.704 1.673-6.196 3.236-8.822 4.282V65.267c3.296.45 9.647 1.638 11.89 4.304-.715.75-1.758 1.558-3.068 2.39zM55 67.533c0 .378-.174.8-.475 1.246-3.494-3.84-14.025-4.708-14.564-4.744-.462.036-10.99.905-14.486 4.744-.3-.447-.474-.868-.474-1.246V65.7c.013-.016.03-.032.043-.05.99-1.212 3.117-2.282 6.13-3.116l.168-.046c.184-.05.373-.097.562-.145a47.158 47.158 0 0 1 4.298-.852c.14-.02.28-.042.414-.06.354-.053.71-.103 1.075-.15l.407-.05.46-.052c.86-.097 1.41-.14 1.413-.145.115.008.253.02.38.03.257.022.626.055 1.098.104l.406.042.472.055c.518.06 1.004.125 1.482.19 3.18.462 7.062 1.29 9.39 2.604a7.684 7.684 0 0 1 .932.63 4.477 4.477 0 0 1 .517.486c.136.155.26.314.353.48v1.878zm-16-57.31c3.125 4.754 6.12 8.725 8.793 12.266 6.72 8.91 11.796 15.66 12.95 26.975-6.514-.605-16.723-2.67-21.743-4.76V10.223zm2 49.893c-.608-.057-.98-.082-1.036-.082-.078.006-.426.032-.964.086v-6.99c.447.08 1.132.194 2 .332v6.655zm-3.533-10.084c-.363.008-.84.027-1.406.064l-.202.015a25.925 25.925 0 0 0-1.181.105c-.177.017-.35.034-.534.055-.206.025-.422.054-.638.082-.162.022-.32.042-.488.066a37.58 37.58 0 0 0-.747.118c-.158.025-.312.05-.473.08-.27.046-.544.1-.824.154l-.48.098a45.506 45.506 0 0 0-1.37.318 38.174 38.174 0 0 0-1.432.392c-.303.09-.608.184-.917.284-.184.06-.37.125-.557.19-.303.104-.605.21-.91.326-.2.075-.4.158-.6.238a28.13 28.13 0 0 0-.882.366c-.218.096-.434.2-.652.303-.277.13-.555.258-.83.4-.243.122-.483.257-.723.39-.252.136-.503.268-.75.414-.286.17-.566.355-.848.535-.2.13-.403.25-.6.384-.478.326-.948.67-1.408 1.04.024-.93.08-1.846.163-2.745.092-.986.223-1.952.38-2.903.078-.464.172-.917.263-1.372 5.535-2.99 12.117-6.106 19.18-6.84v7.432l-.533.01zM34.71 19.837c.14-.186.272-.37.41-.553.308-.417.612-.832.91-1.24l.48-.67a96.158 96.158 0 0 0 1.24-1.774c.082-.12.172-.246.252-.367v19.4c-4.958 1.074-12.216 4.876-17.687 9.22 3.006-8.82 8.42-16.045 13.07-22.24.45-.6.89-1.19 1.328-1.776zm22.76 34.247l-.445-.01c-.318-.01-.638-.02-.96-.033-.16-.006-.32-.012-.482-.02-.42-.018-.843-.04-1.266-.065l-.59-.038a96.206 96.206 0 0 1-2.156-.163l-.802-.07-1.008-.097-.496-.05c-.33-.035-.657-.07-.978-.106l-.27-.03c-4.3-.485-7.846-1.08-9.014-1.285v-6.339c5.386 2.148 15.393 4.125 21.83 4.7.09 1.15.157 2.33.168 3.58a51.822 51.822 0 0 1-3.53.028z"/></symbol><symbol id="serviceBreakdownService" viewBox="0 0 80 80"><path fill="currentColor" d="M73.192 40H51V24h8.697c8.246 0 9.184 2.734 9.491 3.632.511 1.492 1.232 3.756 1.997 6.154a532.801 532.801 0 0 0 1.79 5.557l.217.657zM52 39h19.809a684.215 684.215 0 0 1-1.578-4.91c-.762-2.393-1.482-4.653-1.988-6.133C67.57 25.995 64.694 25 59.697 25H52v14zm15 21.5c0 3.033-2.468 5.5-5.5 5.5a5.507 5.507 0 0 1-5.5-5.5c0-3.033 2.468-5.5 5.5-5.5s5.5 2.467 5.5 5.5zm-43 0c0 3.033-2.468 5.5-5.5 5.5a5.507 5.507 0 0 1-5.5-5.5c0-3.033 2.468-5.5 5.5-5.5s5.5 2.467 5.5 5.5z"/><path fill="currentColor" d="M79.874 40.719c-.032-.099-3.54-10.736-5.009-15.029C73.094 20.516 68.132 18 59.697 18H45v28h-6v-3.133l-11.679-20.31-24.483-5.101-1.773 1.772 22.561 7.178 6.731 16.347L23.568 46H0v10.5C0 60.966 2.85 63 5.5 63h1.771c1.147 5.216 5.756 9 11.229 9a11.457 11.457 0 0 0 11.228-9h20.543c1.147 5.216 5.756 9 11.229 9a11.457 11.457 0 0 0 11.228-9H74.5c3.032 0 5.5-2.467 5.5-5.5V41.096l-.126-.377zM18.5 69a8.469 8.469 0 0 1-8.458-7.649L10 60.927V60H5.5a2.036 2.036 0 0 1-.772-.144c-.054-.02-.11-.037-.165-.06a2.13 2.13 0 0 1-.294-.171c-.045-.03-.091-.058-.133-.091a2.278 2.278 0 0 1-.24-.223c-.052-.056-.105-.11-.152-.17a2.524 2.524 0 0 1-.161-.237 3.54 3.54 0 0 1-.16-.278c-.035-.075-.067-.16-.099-.24a3.87 3.87 0 0 1-.13-.369c-.028-.1-.048-.213-.07-.323-.025-.124-.054-.244-.071-.377A6.6 6.6 0 0 1 3 56.5V49h44v11H27v.927l-.042.424A8.469 8.469 0 0 1 18.5 69zM77 57.5c0 1.378-1.121 2.5-2.5 2.5H70v.927l-.042.424A8.469 8.469 0 0 1 61.5 69a8.469 8.469 0 0 1-8.458-7.649L52.908 60H48V21h11.697c6.94 0 10.962 1.827 12.297 5.58.01.028.024.054.033.082.165.484.359 1.054.569 1.676A2752.094 2752.094 0 0 1 77 41.582V57.5z"/></symbol><symbol id="serviceChangeAddress" viewBox="0 0 80 80"><path fill="currentColor" d="M46.5 36h-13c-2.788 0-4.5-2.621-4.5-4.5s1.712-4.5 4.5-4.5h13c2.788 0 4.5 2.621 4.5 4.5S49.288 36 46.5 36zm-13-8c-2.169 0-3.5 2.039-3.5 3.5 0 1.461 1.331 3.5 3.5 3.5h13c2.169 0 3.5-2.039 3.5-3.5 0-1.461-1.331-3.5-3.5-3.5h-13zM60 51.5V46H49v5.559c0 2.654 1.518 5.714 4 6.352v5.608c-2.375.184-3.372 1.638-3.416 1.704l-.519.777h10.87l-.519-.777c-.044-.066-1.041-1.52-3.416-1.704v-5.611c2.482-.655 4-3.74 4-6.408z"/><path fill="currentColor" d="M9 8v13h3v46.5c0 2.93 2.727 5.5 5.834 5.5h45C65.779 73 68 70.636 68 67.5V21h3V8H9zm56 59.5c0 1.204-.678 2.5-2.166 2.5h-45a2.74 2.74 0 0 1-.502-.05 3.22 3.22 0 0 1-1.296-.595c-.043-.034-.09-.063-.132-.098-.055-.047-.102-.102-.154-.151-.08-.08-.163-.158-.232-.244l-.032-.046a2.375 2.375 0 0 1-.422-.835A1.923 1.923 0 0 1 15 67.5V19h50v48.5zM68 18H12v-7h56v7z"/></symbol><symbol id="serviceContact" viewBox="0 0 80 80"><path fill="currentColor" d="M56 43.5c0 1.378-1.121 2.5-2.5 2.5a2.503 2.503 0 0 1-2.5-2.5c0-1.378 1.121-2.5 2.5-2.5s2.5 1.122 2.5 2.5zm8 0c0 1.378-1.121 2.5-2.5 2.5a2.503 2.503 0 0 1-2.5-2.5c0-1.378 1.121-2.5 2.5-2.5s2.5 1.122 2.5 2.5zm8 0c0 1.378-1.121 2.5-2.5 2.5a2.503 2.503 0 0 1-2.5-2.5c0-1.378 1.121-2.5 2.5-2.5s2.5 1.122 2.5 2.5z"/><path fill="currentColor" d="M73.834 30h-24a5.983 5.983 0 0 0-4.84 2.481 23.035 23.035 0 0 0-1.919-.993A15.935 15.935 0 0 0 47 21c0-8.822-7.178-16-16-16s-16 7.178-16 16c0 3.723 1.304 7.313 3.638 10.155C7.302 35.871 2 48.145 2 69.5V72h57v-2.5c0-4.547-.22-8.99-.613-12.5h15.447C76.779 57 79 54.636 79 51.5v-16c0-3.136-2.22-5.5-5.166-5.5zm-55.206-5.023a13.134 13.134 0 0 1-.286-1.059c-.017-.076-.041-.148-.058-.224-.08-.38-.138-.765-.184-1.153-.007-.061-.02-.12-.028-.181-.048-.45-.072-.903-.072-1.36 0-7.168 5.832-13 13-13s13 5.832 13 13c0 .463-.026.923-.075 1.378-.014.133-.042.26-.06.392-.044.319-.09.638-.157.951-.034.162-.082.318-.122.477-.07.275-.14.55-.228.818-.057.177-.127.349-.192.523-.09.24-.18.48-.284.713-.082.185-.172.364-.263.544a12.036 12.036 0 0 1-.658 1.165 13.163 13.163 0 0 1-.76 1.072c-.167.21-.343.415-.523.616-.11.123-.217.247-.331.365-.255.262-.522.514-.8.757-.066.057-.127.12-.195.176l-.141.12c-.355.29-.727.557-1.11.809l-.011.006c-.115.076-.236.143-.353.215-.404.246-.818.468-1.243.668-.073.034-.144.072-.219.106a13.31 13.31 0 0 1-1.047.409c-.186.065-.373.129-.561.185-.316.093-.635.178-.96.247-.121.026-.243.043-.365.065a12.623 12.623 0 0 1-1.18.164c-.384.035-.77.059-1.162.059-.4 0-.796-.024-1.188-.06-.113-.01-.225-.024-.337-.038-.3-.035-.597-.08-.891-.136-.098-.018-.195-.034-.292-.054-.38-.081-.755-.176-1.122-.29-.05-.015-.099-.034-.149-.05a12.585 12.585 0 0 1-1.224-.467 12.55 12.55 0 0 1-.85-.41c-.065-.034-.13-.065-.194-.1a13.03 13.03 0 0 1-3.125-2.41c-.173-.18-.34-.363-.503-.553a13.016 13.016 0 0 1-.361-.446c-.144-.184-.287-.37-.42-.562-.127-.182-.244-.369-.362-.557-.107-.172-.216-.344-.317-.521-.13-.233-.247-.473-.363-.713-.07-.146-.146-.288-.211-.437a13.138 13.138 0 0 1-.345-.895c-.038-.109-.083-.214-.118-.324zM47 69V58h-1v11H15V58h-1v11H5.001c.005-1.227.031-2.416.072-3.579l.01-.313a95.65 95.65 0 0 1 .173-3.072c.014-.21.027-.424.044-.632.07-.89.157-1.749.252-2.595.033-.301.065-.606.102-.902.093-.74.2-1.457.312-2.164.06-.376.12-.752.185-1.118a54.268 54.268 0 0 1 .641-3.057 44.363 44.363 0 0 1 .785-2.826l.013-.036c.845-2.662 1.9-4.992 3.173-6.998l.039-.06a22.31 22.31 0 0 1 1.407-1.963 20.33 20.33 0 0 1 1.57-1.739 19.25 19.25 0 0 1 3.6-2.782c.213-.127.425-.254.642-.373.447-.242.907-.466 1.377-.676.172-.077.343-.154.518-.227.531-.22 1.077-.42 1.638-.6a23.35 23.35 0 0 1 1.858-.524c.3.194.607.373.918.543l.013.006c.356.193.721.366 1.092.526a13.939 13.939 0 0 0 1.236.468c.081.027.161.056.243.081.395.12.795.225 1.2.31.084.017.17.03.254.046.333.063.67.114 1.007.154.117.013.233.027.352.038.421.038.845.064 1.273.064.418 0 .834-.026 1.248-.063a13.905 13.905 0 0 0 4.928-1.391c.089-.044.18-.084.267-.13.22-.114.43-.237.641-.361.06-.036.123-.067.183-.103.724.193 1.424.418 2.104.67l.129.05a20.198 20.198 0 0 1 3.923 1.993c.548.36 1.077.739 1.577 1.15V41H34.914L46 48.76v2.74c0 2.003 2.024 3.5 3.834 3.5h5.261c.558 3.703.884 8.748.904 14H47zm29-17.5c0 1.378-1.121 2.5-2.5 2.5H49.834C48.524 54 47 52.908 47 51.5v-3.26L38.086 42H47v-6.5c0-.135.02-.266.04-.395l.022-.088c.29-1.13 1.508-2.017 2.772-2.017H73.5c1.379 0 2.5 1.122 2.5 2.5v16z"/></symbol><symbol id="serviceHomeAssistance" viewBox="0 0 80 80"><path fill="currentColor" d="M63.146 32.854L54 23.707V14h1v9.293l8.853 8.854-.707.707z"/><path fill="currentColor" d="M75.465 41.71l-5.47-5.727A18.392 18.392 0 0 0 74 24.5C74 14.299 65.701 6 55.5 6a18.48 18.48 0 0 0-10.803 3.497l-.966-1.01a5.584 5.584 0 0 0-3.863-1.527c-1.486 0-2.893.576-3.995 1.656l-31.642 33c-1.883 1.841-1.467 3.559-1.2 4.212C3.295 46.481 4.198 48 6.833 48H12v25h56V48h4.834c2.644 0 3.539-1.523 3.802-2.18.26-.656.664-2.375-1.171-4.11zM65 70H47V50H33v20H15V45H6.834c-.169 0-.31-.012-.432-.03-.052-.008-.092-.02-.137-.031-.062-.014-.127-.027-.175-.044-.034-.012-.057-.027-.085-.041-.04-.02-.083-.039-.109-.059a.28.28 0 0 1-.073-.081c-.003-.006-.013-.013-.014-.018-.003-.007 0-.022-.002-.03a.246.246 0 0 1-.005-.102c.005-.032.022-.075.036-.115.012-.032.018-.062.037-.098.018-.036.05-.082.076-.123.032-.052.06-.101.105-.159.056-.072.131-.154.212-.237.034-.036.056-.067.095-.105l4.148-4.326 27.495-28.675c1.09-.849 2.818-1.044 3.636-.279l1.94 2.126.212.27a16.676 16.676 0 0 0-3.081 4.326l.894.457a15.55 15.55 0 0 1 3.235-4.365l.01-.006c.29-.274.594-.527.9-.776a14.2 14.2 0 0 1 .53-.41 15.578 15.578 0 0 1 1.2-.81c.19-.115.383-.225.578-.332.224-.124.45-.245.682-.357.178-.088.36-.168.541-.248.25-.11.5-.217.754-.314.176-.067.355-.124.532-.184.263-.089.526-.177.792-.252.192-.053.385-.094.578-.14.256-.061.512-.125.771-.173.246-.045.496-.074.744-.107.212-.028.421-.065.634-.085.468-.043.938-.067 1.412-.067C64.047 9 71 15.953 71 24.5c0 .508-.027 1.01-.075 1.509-.023.226-.064.448-.095.672-.038.266-.07.533-.121.796-.053.27-.124.535-.191.802-.053.21-.1.422-.162.63-.082.275-.18.544-.276.813-.07.196-.138.392-.216.585-.104.258-.222.511-.342.764-.093.2-.188.4-.29.598a18.804 18.804 0 0 1-.779 1.314 15.274 15.274 0 0 1-.914 1.244c-.139.17-.281.34-.428.506-.282.319-.568.635-.879.933A15.42 15.42 0 0 1 55.5 40c-6.459 0-12.304-4.07-14.544-10.125l-.937.346C42.403 36.67 48.625 41 55.5 41c4.106 0 8.015-1.513 11.059-4.271l6.826 7.07c.386.368.615.639.615.794v.016c0 .041-.07.078-.078.1-.013.03-.08.063-.121.093-.024.017-.082.034-.117.052a.95.95 0 0 1-.104.044c-.043.015-.108.027-.164.04-.049.01-.095.024-.152.032-.121.018-.262.03-.43.03H65v25z"/><path fill="currentColor" d="M45.103 30.305L40.5 24.32l-4.604 5.985-.793-.61L40.5 22.68l5.396 7.015-.793.61z"/></symbol><symbol id="serviceMyDriveRecorder" viewBox="0 0 80 80"><path fill="currentColor" d="M39.999 5C20.7 5 5 20.701 5 40s15.7 35 34.999 35c19.299 0 34.999-15.701 34.999-35S59.298 5 39.999 5zm0 3c16.208 0 29.63 12.116 31.71 27.766l-7.523-2.052A24.929 24.929 0 0 0 40 15a24.929 24.929 0 0 0-24.187 18.714L8.29 35.767C10.367 20.117 23.79 8 40 8zm31.999 32c0 .987-.052 1.961-.14 2.925l-16.918-1.88c.038-.246.06-.464.06-.645 0-2.28-1.723-6.66-3.225-9.034l20.066 5.472c.102 1.04.157 2.095.157 3.162zM40 35c3.309 0 6 2.691 6 6s-2.691 6-6 6-6-2.691-6-6 2.691-6 6-6zm10.73-4.956c-.865-.654-4.008-1.702-4.994-2.02L34.5 28l-.151.023c-1.004.319-4.206 1.366-5.079 2.021l-12.326 3.362A23.924 23.924 0 0 1 40 16c10.78 0 20.126 7.12 23.056 17.406L50.73 30.044zm-22.505 1.322C26.723 33.741 25 38.12 25 40.4c0 .181.021.4.06.646l-16.92 1.88A32.234 32.234 0 0 1 8 40c0-1.067.055-2.12.157-3.161l20.068-5.473zM25.269 42.03c.983 3.832 4.517 11.297 7.796 11.925l1.484 9.394c-9.663-2.255-17.09-10.463-18.342-20.312l9.062-1.007zm21.666 11.925c3.279-.628 6.813-8.093 7.796-11.925l9.062 1.007c-1.252 9.848-8.679 18.057-18.342 20.312l1.484-9.394zM15.213 43.147c1.324 10.56 9.08 19.03 19.505 21.272l1.153 7.306C21.454 69.858 10.022 58.366 8.25 43.92l6.964-.773zm21.69 28.7L34.086 54h11.828l-2.817 17.848a32.33 32.33 0 0 1-3.098.152c-1.045 0-2.076-.054-3.096-.152zm7.226-.122l1.153-7.306c10.425-2.242 18.18-10.711 19.505-21.272l6.962.773c-1.773 14.445-13.204 25.937-27.62 27.805z"/></symbol><symbol id="servicePremiumCalculator" viewBox="0 0 80 80"><path fill="currentColor" d="M60 45h-8v-7h8v7z"/><path fill="currentColor" d="M62.5 73h-46a5.506 5.506 0 0 1-5.5-5.5v-54c0-3.033 2.467-5.5 5.5-5.5h46c3.033 0 5.5 2.467 5.5 5.5v54c0 3.033-2.467 5.5-5.5 5.5zm-46-62a2.503 2.503 0 0 0-2.5 2.5v54c0 1.378 1.122 2.5 2.5 2.5h46c1.378 0 2.5-1.122 2.5-2.5v-54c0-1.378-1.122-2.5-2.5-2.5h-46z"/><path fill="currentColor" d="M60 33H19V16h41v17zm-40-1h39V17H20v15zm7 13h-8v-7h8v7zm11 0h-8v-7h8v7zm11 0h-8v-7h8v7zM27 55h-8v-7h8v7zm11 0h-8v-7h8v7zm11 0h-8v-7h8v7zm11 10h-8V48h8v17zm-7-1h6V49h-6v15zm-26 1h-8v-7h8v7zm11 0h-8v-7h8v7zm11 0h-8v-7h8v7z"/></symbol><symbol id="serviceReportDamage" viewBox="0 0 80 80"><path fill="currentColor" d="M75.223 64.662L44.144 8.902C43.307 7.4 41.978 6.54 40.5 6.54c-1.479 0-2.807.86-3.644 2.362l-31.08 55.76c-.824 1.481-.87 3.06-.122 4.334C6.403 70.27 7.804 71 9.5 71h62c1.696 0 3.097-.73 3.846-2.004.747-1.274.702-2.853-.123-4.334zm-66.94 2.862c-.013-.017-.032-.03-.042-.047-.006-.01-.007-.024-.013-.035-.164-.315-.114-.761.134-1.243.014-.026.02-.05.035-.075l31.08-55.76c.287-.516.67-.824 1.023-.824.334 0 .69.282.972.746.017.028.036.049.052.078l31.079 55.76c.015.025.021.05.035.075.257.498.306.962.12 1.278-.195.332-.654.523-1.258.523h-62c-.573 0-1.007-.176-1.218-.476z"/><path fill="currentColor" d="M65.138 63H15.862L40.5 18.797 65.138 63zm-47.574-1h45.871L40.5 20.851 17.564 62z"/><path fill="currentColor" d="M43 33v16h-5V33h5zm0 21.5c0 1.378-1.122 2.5-2.5 2.5a2.503 2.503 0 0 1-2.5-2.5c0-1.378 1.122-2.5 2.5-2.5s2.5 1.122 2.5 2.5z"/></symbol><symbol id="teaserBetaVersion" viewBox="0 0 56 56"><g fill="currentColor"><path d="M45.5 24H41V8.5C41 5.468 38.532 3 35.5 3h-23A5.507 5.507 0 0 0 7 8.5v35c0 3.032 2.468 5.5 5.5 5.5H29v.5c0 1.93 1.57 3.5 3.5 3.5h13c1.93 0 3.5-1.57 3.5-3.5v-22c0-1.93-1.57-3.5-3.5-3.5zm.5 25.5c0 .275-.225.5-.5.5h-13a.501.501 0 0 1-.5-.5v-22c0-.275.225-.5.5-.5h13c.275 0 .5.225.5.5v22zm-36-41A2.5 2.5 0 0 1 12.5 6h23A2.5 2.5 0 0 1 38 8.5V26h-3V9H13v25h18v12H12.5a2.5 2.5 0 0 1-2.5-2.5v-35zm21 19V33H14V13h20v13h-1.5c-.827 0-1.5.673-1.5 1.5z"/><circle cx="24" cy="40" r="2"/><circle cx="39" cy="46" r="2"/><path d="M34 30v12h10V29H34v1zm9 11h-8v-9h8v9z"/></g></symbol><symbol id="teaserJobsKarriere" viewBox="0 0 56 56"><path d="M45.5 15H38V9H18v6h-7.5C7.313 15 5 17.103 5 20v22c0 2.838 2.26 6 5.5 6h35c3.24 0 5.5-3.162 5.5-6V20c0-2.897-2.313-5-5.5-5zM21 12h14v5h-2v-3H23v3h-2v-5zm11 5h-8v-2h8v2zm-11 1h24.5c1.378 0 2.5 1.12 2.5 2.5v6.824L44.26 32H35v-3h-4v-2h-6v2h-4v3h-9.26L8 27.324V20.5c0-1.38 1.122-2.5 2.5-2.5H21zm13 15v2h-3v-5h3v3zm-12 0v-3h3v5h-3v-2zM8 42V28.926L11.26 33H21v3h4v1.84l3 1.198 3-1.2V36h4v-3h9.74L48 28.926V42c0 1.514-1.238 3-2.5 3h-35C9.238 45 8 43.514 8 42z" fill="currentColor"/></symbol><symbol id="teaserMyAxa" viewBox="0 0 56 56"><g fill="currentColor"><path d="M52 32.5C52 25.607 46.393 20 39.5 20c-2.268 0-4.528.64-6.473 1.815-.357-.24-.725-.466-1.103-.677A10.414 10.414 0 0 0 33 16.5C33 10.71 28.29 6 22.5 6S12 10.71 12 16.5c0 1.726.44 3.438 1.256 4.96C4.996 26.482 4 38.04 4 46.5V49h38v-2.5c0-.587-.007-1.17-.02-1.748C47.7 43.587 52 38.46 52 32.5zm-3.047.93c-.02.198-.054.394-.086.59-.016.098-.027.2-.046.296-.05.267-.117.53-.19.787-.007.02-.01.04-.017.06a9.64 9.64 0 0 1-4.107 5.396c-.02.01-.04.023-.06.035a9.3 9.3 0 0 1-.67.377l-.167.08c-.2.097-.403.188-.61.27-.095.04-.192.073-.29.108-.175.063-.353.126-.534.18-.134.04-.27.07-.406.105-.154.038-.307.077-.464.108-.164.03-.33.053-.498.076-.14.018-.276.04-.417.055-.293.027-.59.045-.89.045-2.05 0-3.946-.66-5.5-1.77V40h-.31C31.45 38.26 30 35.55 30 32.5c0-3.184 1.58-6 3.99-7.725.138-.097.277-.192.418-.282.08-.052.164-.1.246-.15.16-.095.323-.19.49-.276.03-.016.065-.03.097-.046a9.634 9.634 0 0 1 1.864-.702c.083-.022.167-.046.25-.065.162-.037.324-.07.486-.1a15.212 15.212 0 0 1 .806-.111c.28-.025.565-.043.854-.043 5.238 0 9.5 4.262 9.5 9.5 0 .313-.017.623-.047.93zM22.5 9c4.136 0 7.5 3.364 7.5 7.5 0 .35-.033.693-.08 1.034-.013.09-.025.182-.042.272-.056.32-.128.637-.225.947-.024.075-.055.147-.08.222-.09.25-.19.496-.305.736-.043.09-.083.18-.13.27-.15.283-.318.558-.505.824a7.495 7.495 0 0 1-6.133 3.196 7.485 7.485 0 0 1-5.76-2.704l-.122-.157-.044-.06a7.55 7.55 0 0 1-1.164-2.156l-.002-.004c-.127-.37-.22-.75-.29-1.136-.008-.046-.014-.094-.02-.14A7.3 7.3 0 0 1 15 16.5c0-4.136 3.364-7.5 7.5-7.5zm-9.272 16.205c.082-.072.163-.144.247-.213.3-.25.62-.48.95-.7.092-.062.18-.13.276-.19.42-.264.86-.51 1.326-.726.318-.147.65-.273.986-.397a8.454 8.454 0 0 0 11.19-.195c.54.178 1.058.396 1.563.64.236.115.474.225.702.353.323.183.634.386.94.598.07.05.144.096.214.146.196.143.38.302.57.457A10.454 10.454 0 0 0 29 32.5c0 3.335 1.568 6.306 4 8.23V46H13v-6h-1v6H7c.04-6.534.844-11.62 2.456-15.403.054-.126.103-.256.16-.38.108-.24.226-.46.34-.69.135-.263.266-.53.412-.783.07-.125.148-.24.22-.363.202-.327.408-.65.63-.96.058-.08.118-.156.177-.234.245-.327.5-.643.774-.945l.195-.21c.273-.288.562-.563.863-.825zM38.896 42.97c.054 1.002.094 2.015.102 3.03H34v-4.572c1.44.89 3.107 1.44 4.896 1.542z"/><path d="M39.5 27C36 27 36 29.098 36 32h-1v6h9v-6h-1c0-2.902 0-5-3.5-5zm0 2c1.5 0 1.5 0 1.5 3h-3c0-3 0-3 1.5-3z"/></g></symbol><symbol id="add" viewBox="0 0 24 24"><path fill="currentColor" d="M24 13.63v-2.346m-24-.032v2.314"/><path fill="currentColor" stroke="#1D1D1B" stroke-width="2" stroke-miterlimit="10" d="M0 12h24M12 0v24"/></symbol><symbol id="arrow-bottom" viewBox="0 0 24 24"><path fill="currentColor" fill-rule="evenodd" clip-rule="evenodd" d="M24.003 6.81l-1.505-1.47L11.99 15.652 1.498 5.412.004 6.88l10.49 10.24-.004.004 1.506 1.47.004-.003.004.005 1.496-1.47-.004-.003"/></symbol><symbol id="arrow-left" viewBox="0 0 24 24"><path fill="currentColor" fill-rule="evenodd" clip-rule="evenodd" d="M18.63 1.478L17.16-.025 6.862 10.497l-.004-.004L5.39 11.99l.005.005L5.39 12l1.473 1.503.004-.005 10.255 10.477 1.465-1.496L8.334 12"/></symbol><symbol id="arrow-right" viewBox="0 0 24 24"><path fill="currentColor" fill-rule="evenodd" clip-rule="evenodd" d="M5.39 1.478L6.86-.025l10.3 10.522.004-.004 1.467 1.497-.003.005.004.004-1.472 1.503-.004-.005L6.9 23.975 5.434 22.48 15.688 12"/></symbol><symbol id="arrow-top" viewBox="0 0 24 24"><path fill="currentColor" fill-rule="evenodd" clip-rule="evenodd" d="M1.514 18.595L.01 17.125l10.523-10.3-.004-.004 1.496-1.466.005.004.005-.004 1.504 1.473-.006.004L24.01 17.087l-1.495 1.465L12.037 8.3"/></symbol><symbol id="burger" viewBox="0 0 24 24"><g stroke="currentColor" stroke-width="2" fill="none" fill-rule="evenodd"><path d="M0 5h24" class="burger-icon__top"/><path d="M0 12h24" class="burger-icon__middle"/><path d="M0 19h24" class="burger-icon__bottom"/></g></symbol><symbol id="calendar" viewBox="0 0 2048 2048"><title>Calendar</title><path d="M483.125 48c-50.38 0-91.156 40.693-91.156 90.97v327.717c0 50.195 40.856 90.97 91.155 90.97 50.38 0 91.156-40.756 91.156-91.032V138.97c0-50.277-40.775-90.97-91.155-90.97zm1098.094 0c-50.3 0-91.064 40.693-91.064 90.97v327.717c0 50.195 40.764 90.97 91.063 90.97 50.38 0 91.25-40.756 91.25-91.032V138.97c-.002-50.277-40.87-90.97-91.25-90.97zM0 310.188V2048h2048V310.187h-345.5v4.125c37.928 33.464 62.03 82.282 62.03 136.782 0 100.958-82.05 182.75-183.217 182.75-101.086 0-183.126-81.873-183.126-182.75 0-54.5 24.023-103.318 62.032-136.78v-4.127H604.31v4.125c37.928 33.464 61.938 82.282 61.938 136.782 0 100.958-82.04 182.75-183.125 182.75C381.958 633.844 300 551.97 300 451.094c0-54.5 24.022-103.318 62.03-136.78v-4.127H0zM56.97 706.78h1933.81v1284.126H56.97V706.78zM320 1024v256h256v-256H320zm384 0v256h256v-256H704zm384 0v256h256v-256h-256zm384 0v256h256v-256h-256zM320 1408v256h256v-256H320zm384 0v256h256v-256H704zm384 0v256h256v-256h-256z"/></symbol><symbol id="check-circle" viewBox="0 0 24 24"><path clip-rule="evenodd" fill="none" stroke="currentColor" stroke-width="2" stroke-miterlimit="10" d="M1.333 12C1.333 6.105 6.108 1.33 12 1.33c5.89 0 10.666 4.775 10.666 10.67 0 5.894-4.777 10.67-10.667 10.67S1.332 17.894 1.332 12z"/><path fill="none" stroke="currentColor" stroke-width="1.52" stroke-miterlimit="10" d="M16.068 7.895l-5.88 8.206-2.32-2.317"/></symbol><symbol id="checkmark" viewBox="0 0 1878 2048"><title>Checkmark</title><path d="M1853.37 296.916l.335-.683C1868.738 267.67 1878 235.21 1878 200.29 1878 89.725 1792.432 0 1686.797 0c-61.14 0-114.83 30.546-149.794 77.22l-.135-.07-.604 1.026c-9.73 13.052-18.255 26.992-24.63 42.3L716.353 1485.19 350.19 1016.753v.07c-34.293-53.78-92.68-89.178-158.987-89.178C85.635 927.647 0 1017.372 0 1127.937c0 56.104 22.214 106.74 57.716 143.094l486.16 685.333h.135c34.026 55.01 92.95 91.637 160.197 91.637 79.73 0 147.982-51.32 176.572-123.89l959.5-1605.398c4.9-7.04 9.06-14.35 13.087-22.004v.206z"/></symbol><symbol id="circle-outline" viewBox="0 0 24 24"><circle fill="none" stroke="currentColor" stroke-width="2.09" stroke-miterlimit="10" cx="12" cy="12" r="10.95"/></symbol><symbol id="circle" viewBox="0 0 24 24"><circle stroke="currentColor" stroke-width="2.09" stroke-miterlimit="10" cx="12" cy="12" r="10.95"/></symbol><symbol id="clipboard" viewBox="0 0 1646 2048"><title>Clipboard</title><path d="M823.016 0C679.534 0 563.243 116.143 563.243 259.656c0 5.145.32 10.303.47 15.47h-318.88v269.062h1156.366V275.125h-319.036c.32-5.166.437-10.324.437-15.47C1082.6 116.166 966.39 0 823.017 0zm0 142.72c64.44.084 116.868 52.34 116.868 116.936 0 64.512-52.43 116.664-116.868 116.813-64.59-.15-116.708-52.302-116.837-116.814.128-64.595 52.247-116.852 116.836-116.937zM0 440.655V2048h1646V440.656h-128.558v226.75H128.746v-226.75H0zm482.57 540l458.502 378.313-458.502 378.343v-246.844H.03v-263h482.54V980.655z"/></symbol><symbol id="close" viewBox="0 0 2048 2048"><title>Close</title><path d="M1024 0C458.462 0 0 458.462 0 1024c0 565.537 458.462 1024 1024 1024 565.537 0 1024-458.463 1024-1024C2048 458.462 1589.537 0 1024 0zM668.687 563.22l361.907 361.53 361.562-361.53 67.75 67.75-361.562 361.56 361.562 361.564-67.75 67.75-361.625-361.532-361.905 361.532-67.75-67.75 361.78-361.563-361.78-361.56 67.813-67.75z"/></symbol><symbol id="cross" viewBox="0 0 24 24"><path fill="none" stroke="currentColor" stroke-width="2" stroke-miterlimit="10" d="M1.03 1.03l21.94 21.91"/><path fill="none" stroke="currentColor" stroke-width="1.992" stroke-miterlimit="10" d="M1.063 22.938L22.906 1.094"/></symbol><symbol id="desktop" viewBox="0 0 2048 2048"><title>Desktop</title><path d="M1280 1664H768c-10.288 90.124-76.032 191.168-128 192v64h768v-64c-83.143-51.523-117.65-107.164-128-192zm709.69-1535.853H58.307C26.105 128.147 0 154.252 0 186.454V1477.69c0 32.2 26.105 58.31 58.307 58.31H1989.69c32.2 0 58.31-26.11 58.31-58.31V186.454c0-32.202-26.11-58.307-58.31-58.307zM1920 1408H128V256h1792z" fill-rule="nonzero"/></symbol><symbol id="doge" viewBox="0 0 1024 1024"><path d="M39.772 526.7c16.017-98.073 8.947-50.503 27.964-127.076 0 0 89.92-110.59 426.78-161.763 73.61-11.18 354.95-94.496 389.055 260.208 38.45 399.885-17.496 512.07-123.104 520.688-195.596 15.96-459.323-5.364-555.59-52.353C88.07 909.39 18.547 827.28 14.6 703.6c-1.74-54.52 19.266-140.75 25.17-176.9z" fill="#e0d3a8"/><path d="M137.51 470.522c-5.43-31.26 12.757-64.326.545-81.223-25.107-34.74-76.576 70.98-89.935 87.696 6.495-38.834 15.038-73.864 20.404-96.965 9.403-40.553 35.724-83.69 67.758-107.563 31.956-23.813 64.104-21.993 86.405-45.764 52.45-55.907 66.625-73.343 75.078-141.785 2.134-17.273-.327-79.915 8.392-83.488 15.425-6.32 29.594 9.696 34.244 20.84 16.71 40.05 44.498 78.103 52.298 87.225 20.69 24.2 30.83 43.71 61.97 49.058 66.618 11.438 143.464 28.605 202.5 16.602 7.434-1.512 93.933-86.496 122.6-118.79 22.307-25.133 60.847-35.34 79.565-21.07 23.64 18.02 39.23 89.28 42.52 159.242 2.608 55.466-29.8 95.15-8.146 134.327 23.51 42.534 30.11 74.746 38.276 114.072 8.166 39.327 48.332 130.22 65.926 288.176 17.594 157.957 13.872 163.467-2.534 187.597-16.407 24.128-268.76 152.823-292.982 75.428-31.047-99.208 102.46-301.75 131.272-436.664 21.15-99.033-122.755-187.44-198.88-125.874-88.805 71.822-206.412 140.654-314.232 131.732-69.948-5.788-170.395-19.998-183.043-92.81zM46.47 631.273c9.232-4.128 17.524-10.077 24.15-4.76 12.994 10.43-31.576 8.08-24.15 4.76zm15.075-46.733c-18.43-3.617-14.915-12.165 3.61-7.53 27.24 6.817 8.64 9.933-3.61 7.53z" fill="#cbb887"/><path d="M194.448 334.286c9.53-11.11 24.35-56.846 39.922-58.31 25.388-2.385 26.91 6.482 11.888 28.654-11.635 17.17-26.232 16.828-35.947 27.433-8.052 8.79-20.85 8.04-15.862 2.223z" fill="#cbac65"/><path d="M838.705 36.87c-33.128 3.115-55.33 37.566-71.914 53.647-97.326 94.373-72.216 96.158-162.31 96.712-43.476.266-165.92-33.444-255.19.312-35.015 13.24 15.174 82.314 3.565 108.168-6.238 13.892-21.2 50.295-22.884 55.547-7.102 22.126-20.76 53.838 3.974 62.76 16.666 6.01 93.943-106.15 122.023-116.83 28.08-10.68 78.93 6.737 90.365 52.16 9.7 38.528-51.124 49.327-42.272 77.343 7.364 23.304 41.015 63.917 57.975 51.93 43.692-30.882 101.92-92.142 113.647-120.647 12.415-30.172 37.567-29.224 46.09-24.207 8.52 5.018 58.683 33.47 84.606 80.387 24.565 44.458 42.09 93.332 38.705 140.626-4.41 61.646-166.466 338.904-136.864 428.39 15.703 47.474 78.584 27.56 153.49-1.236 74.904-28.797 101.914-47.747 119.58-63.026 17.667-15.28 22.37-86.998 3.125-192.356-18.866-103.284-36.802-162.122-46.286-193.79-10.397-34.714-15.642-80.062-18.565-95.38-3.25-17.028-7.614-52.974-23.86-87.398-12.127-25.693-27.627-33.15-10.725-79.614 16.9-46.464 16.675-123.44-6.698-190.97-8.588-24.81-28.08-43.612-39.577-42.53zM205.108 809.315c-60.024-7.122-82.82-69.087-100.198-115.584-15.337-41.036 22.877-78.655 14.188-117.737-4.886-21.978 12.054-41.474 47.807-53.282 19.833-9.347 70.974 9.69 80.852 1.542 17.24-14.22 2.87-1.964 30.473 30.55 6.513 7.672 19.22 26.09 9.332 52.044-4.25 11.158-12.264 32.785-6.8 34.605 13.567 4.52 6.115 23.936-5.43 13.886-10.763-9.37-.615 12.54 2.652 17.876 8.4 13.718 4.874-22.082 22.71-2.665 7.248 7.89-6.813 10.507-12.822 12.343-21.244 6.492 46.453 14.518 37.835 47.89-1.877 7.27 34.648 2.02 36.307-5.46 2.993-13.49-26.738-25.82-21.39-32.91 8.018-10.623 41.144 4.123 25.65 8.952-5.92 1.844 2.27 9.924 3.682 18.225 2.396 14.092 65.44-17.086 75.033 4.935 11.807 27.106-11.292 52.085-78.174 78.527-16.038 6.34-113.434 11.993-161.708 6.265z" fill="#b49858"/><path d="M313.522 680.92c-9.05-4.546-10.257-8.366-4.556-14.436 8.422-8.967 12.276-6.438 13.523 8.87.856 10.52.876 10.508-8.968 5.565zm18.58-15.17c2.26-17.38 18.53 6.014 1.957 6.396-1.776.04-2.412-2.908-1.958-6.396zm-28.776-31.983c4.386-.094 6.557 4.518 3.12 7.556-9.205 8.136-9.527-7.42-3.12-7.556zm14.564.901c-1.558-4.022 4.93-11.32 7.613-8.49 7.116 7.51-4.8 15.76-7.614 8.49z" fill="#b49858"/><path style="line-height:normal;text-indent:0;text-align:start;text-decoration-line:none;text-decoration-style:solid;text-decoration-color:#000;text-transform:none;block-progression:tb;isolation:auto;mix-blend-mode:normal" d="M211.825 366.79c-13.892-10.287-19.847-5.234-28.65 8.657-7.068 11.15-10.97 39.387-1.477 51.17 43.94 20.936 74.124-51.037 30.127-59.827z" color="#000" font-family="sans-serif" white-space="normal" overflow="visible" solid-color="#000000" fill="#c8c8c8"/><path d="M188.098 442.685c-11.78-12.292-13.987-23.05-9.357-39.727 3.075-11.073 7.806-10.317 9.582 1.53 2.534 16.905 10.293 16.002 7.89-1.503-1.837-13.378 10.737-27.68-2.418-18.137-17.186 12.466-11.31-8.016-2.79-21.942 8.86-14.486 21.01-17.94 60.098-14.706 12.2 1.01 24.18-4.56 21.542 9.01-2.46 12.66 6.74 51.144-5.655 59.977-27.465 19.573-51.34 54.248-78.892 25.498zm97.814-282.167c6.187-3.65 16.28-13.744 16.397-18.45.968-39.315 2.51-78.093 4.213-118.267C307.66-3.03 324.468 5.95 340.638 39.954c17.66 37.142 42.233 82.923 65.673 106.913 14.973 15.323 9.61 17.694-40.076 18.858-28.86.676-45.938 4.588-54.382 16.047-29.036 39.402-51-6.462-25.94-21.252z" fill="#b49858"/><path d="M829.432 929.945c-38.226 6.31-67.406-8.41-64.106-37.482 3.3-29.07 16.492-22.47 57.918-79.66 41.426-57.187 46.524-110.795 69.036-80.592 52.736 70.753 17.057 184.545-62.848 197.735zM192.834 802.217c-17.955-5.524-33.463-45.174-47.51-51.18-25.883-11.067-36.815-89.588-27.638-99.737 14.6-16.144-8.67-44.085 8.825-53.24 6.093-3.186-25.173-48.35 15.93-59.175 16.652-4.387 34.183-12.81 63.9-11.576 50.23 2.085 96.958 36.182 75.938 73.716-8.32 14.854-10.083 47.952-21.436 62.428-3.82 4.872 14.245 4.627 13.353 14.744-1.833 20.786-17.302-1.86-16.698 2.874 3.537 27.715 35.34 9.827 22.38 25.19-9.667 11.46 14.034 27.676 17.88 29 43.138 14.86 34.907-5.32 132.182-9.498 12.265-.527 10.145 11.76 1.826 18.438-23.942 19.217-44.73 47.248-82.256 53.743-17.53 3.034-9.813-6.594-22.68-7.38-101.55-6.196-93.51 24.11-133.996 11.652z" fill="#9e7036"/><path d="M287.392 675.626c1.25-3.8 10.776-4.908 9.733-1.425-1.25 3.802-10.775 4.91-9.733 1.426zm22.742-2.711c-2.766-5.085 6.904-6.68 7.047-1.835 0 3.212-5.324 5-7.046 1.835zm165.85-171.255c-30.377 0-82.867-33.015-76.73-45.142 8.78-17.346 50.71-29.582 69.986-43.123 37.96-26.665 72.264-25.658 117.207 39.056 6.88 9.91-39.465 39.518-62.904 48.262-10.023 3.74-31.62.95-47.56.95zm374.486-41.478c-35.926-96.517-225.547-186.09-224.463-258.903.1-6.684 23.012-4.464 30.506-3.634 41.695 4.614 131.1-105.345 157.07-136.676 19.065-24.657 36.93-13.91 44.24-7.33 9.243 8.316 17.46 19.895 28.59 66.27 13.712 57.137 8.472 117.357-7.588 160.98-17.494 47.52-4.775 78.873 2.913 109.348 21.67 85.887-20.366 99.237-31.27 69.944zm-648.806-15.787c-5.736-7.06-12.478-9.81-5.997-18.503 9.28-12.45-.707-28.31 6.216-41.7 5.733-11.087 4.494-12.757-4.144-5.487-11.652 9.807-14.643 3.292-5.722-12.464 19.873-35.097 85.72-14.846 78.338 24.092-5.91 31.174-55.54 70.254-68.692 54.063z" fill="#9e7036"/><path d="M181.596 408.665c-.777-3.1-.33-6.532 1.026-7.89 4.525.18 2.244 20.49-1.026 7.89z" fill="#433b2c"/><path d="M397.876 255.114c3.002-9.134 15.368-15.373 18.14-9.29 5.005 10.986-30.344 85.335-40.292 78.776-19.076-12.578 7.475-24.816 22.152-69.486zm-111.792-72.3c-2.994-10.788 13.83-25.397 27.164-21.033 12.375 4.052-22.78 36.835-27.164 21.034zm47.548-27.51C312.422 127.5 302.185 57.9 315.426 21.796c4.486-12.23 19.645 22.77 20.94 26.76 18.54 57.145 69.438 97.852 62.26 108.01-3.866 5.47-60.403 4.756-64.994-1.262z" fill="#9e7036"/><path d="M283.858 776.747c-5.422-9.17-87.62 10.58-122.157-21.49-18.234-16.934-34.2-28.267-29.41-55.865 5.76-33.185 3.74-49.3-7.997-81.05-4.763-12.884-1.518-15.518 14.835-16.558 5.288-.336-35.99-34.348-4.704-58.483 9.312-7.182 83.567 13.423 87.75-2.438 4.35-16.496 63.404 15.223 59.943 32.42-8.895 44.207-16.836 77.832-38.475 93.83-10.408 7.692 24.157 34.83 21.767 43.836-4.78 18.016 46.47 37.983 56.342 36.27 22.045-3.826 111.23-23.874 108.942-13.552-7.978 35.976-132.54 67.263-146.836 43.08z" fill="#433b2c"/><path d="M263.892 677.654c.57-4.33 6.2-3.97 5.906-.844-.39 4.15-6.398 4.577-5.906.844z" fill="#433b2c"/><path style="line-height:normal;text-indent:0;text-align:start;text-decoration-line:none;text-decoration-style:solid;text-decoration-color:#000;text-transform:none;block-progression:tb;isolation:auto;mix-blend-mode:normal" d="M462.645 429.245c-6.95 11.225-1.347 30.81 4.485 50.564 5.832 19.753 25.918 19.447 40.634 20.633 14.716 1.187 26.255-6.81 34.772-11.242 8.518-4.433 16.443-12.123 20.863-16.913-50.173-76.403-81.746-55.23-100.755-43.042z" color="#000" font-family="sans-serif" white-space="normal" overflow="visible" solid-color="#000000" fill="#c8c8c8"/><path d="M426.678 452.84c15.115-17.904 32.646-28.21 50.987-41.356 29.772-21.34 71.985-6.852 100.074 34.362 4.568 6.704 3.183 9.798-10.86 24.276-10.74 11.07-20.3 17.802-12.683 8.528 12.193-14.844-1.75-3.107-6.647 2.778-15.386 18.494-26.762 7.85-42.978 11.43-10.758 2.374-12.782 1.168-16.585-10.26-7.014-21.082 2.5-48.19 16.914-48.19 17.04 0 11.416-10.78-7.71-14.783-36.748-7.69-45.03 68.382-8.517 78.756-15.404.29-81.408-22.547-61.995-45.54zm-218.923-18.01c-5.928-2.534-5.903-2.977-6.897-22.665-1.703-33.728 20.867-53.745 4.915-42.005-17.317 12.745-19.342 6.813-11.36-2.49 30.3-35.31 58.017-14.222 71.667 11.336 5.42 10.15-6.702 35.33-17.57 45.338-10.723 9.874-30.364 14.927-40.755 10.486zm529.197-121.932c-30.588-13.635 55.136-60.238 35.647-83.436-11.957-14.23-8.96-26.166 8.32-26.397 12.653-.168 50.37-8.545 51 2.174 3.382 57.558-27.43 80.87-60.875 114.196-19.78 19.71-20.932-.67-34.093-6.538z" fill="#433b2c"/></symbol><symbol id="download" viewBox="0 0 1792 2048"><title>Download</title><path d="M896.072 1564.666l767.91-796.648h-512V-.002H640.018v767.984h-512l768.054 796.684zM-.01 1792.018h1791.983V2048H-.01v-255.982z"/></symbol><symbol id="dropdown" viewBox="0 0 2048 2048"><title>Dropdown</title><path clip-rule="evenodd" d="M2032.623 550.606L1893.28 400.44c-19.874-21.458-52.372-21.957-71.777-1l-797.522 836.29-800.024-836.32c-19.405-20.958-50.968-20.46-71.075.998L15.41 548.36C-4.7 569.82-5.166 604 14.238 625.207l973.374 1021.946c19.873 21.955 51.904 22.454 71.543 1.497l974.403-1020.7c19.64-20.957 19.172-55.637-.935-77.344z" fill-rule="evenodd"/></symbol><symbol id="facebook" viewBox="0 0 2048 2048.0001"><title>Facebook</title><path d="M1093.827 2048v-793.034H826.99v-309.04h266.837V718.027c0-264.52 161.69-408.603 397.668-408.603 113.028 0 210.125 8.326 238.447 12.086v276.43l-163.632.192c-128.328 0-153.274 60.91-153.274 150.397v197.394H1719.2l-39.9 309.04h-266.264V2048H2048V0L-.147.707 0 2048h1093.827z" fill="#3d539e"/></symbol><symbol id="feedback" viewBox="0 0 2048 2048"><title>Feedback</title><path d="M0 128v1280h512v512l512-512h1024V128H0z"/></symbol><symbol id="github" viewBox="0 0 2048 2048"><title>GitHub</title><path d="M1024 0C458.5 0 0 470.09 0 1049.888c0 463.938 293.376 857.39 700.312 996.185 51.188 9.615 69.876-22.81 69.876-50.494 0-24.992-.938-107.784-1.438-195.444-284.75 63.44-344.938-123.803-344.938-123.803-46.624-121.24-113.688-153.536-113.688-153.536-93.062-65.104 7.06-63.823 7.06-63.823 102.812 7.304 156.94 108.166 156.94 108.166 91.376 160.457 239.75 114.062 298 87.15 9.308-67.668 35.808-114.063 65-140.207-227.312-26.528-466.436-116.625-466.436-518.922 0-114.702 39.938-208.256 105.312-281.757-10.438-26.66-45.688-133.48 10.124-277.977 0 0 85.876-28.195 281.624 107.653 81.624-23.39 169.188-34.925 256.25-35.31 87 .387 174.624 12.048 256.376 35.436C1475.75 407.23 1561.75 435.552 1561.75 435.552c56 144.627 20.75 251.32 10.25 277.85 65.624 73.502 105.25 167.058 105.25 281.76 0 403.32-239.5 492.133-467.624 518.15 36.876 32.553 69.5 96.378 69.5 194.292 0 140.337-1.376 253.5-1.376 288.103 0 27.94 18.624 60.62 70.5 50.366C1754.876 1907.02 2048 1513.57 2048 1049.888 2048 470.09 1589.5 0 1024 0z"/></symbol><symbol id="google-plus" viewBox="0 0 2048 2048"><title>Google Plus</title><path d="M.5.515V599.42c79.147-190.644 299.6-335.75 544-335.75h635.594l-161.28 169.25H899.75c88.29 70.093 139.813 188.894 139.813 327.158 0 124.184-63.47 239.457-183.563 333.312-100.588 78.55-115.78 108.232-115.78 169.53 0 46.525 107.216 126.283 158.75 164.626l13.25 9.875c206.435 154.85 239.78 254.125 239.78 431.845.01 60.347-16.915 121.243-49.313 178.25H2047.5V.515H.5zm446.188 388.688v.28c-60.075 0-113.285 24.484-153.938 70.813-58.74 66.976-83.803 171.072-68.75 285.657 26.017 197.7 168.61 350.477 331.75 355.375h7.844c61.104 0 112.72-22.037 149.28-63.72 51.422-58.627 71.544-153.33 56.657-266.718-27.963-212.864-163.933-376.815-316.25-381.406l-6.592-.28zM.5 935.953v686.625c106.844-92.512 259.43-155.625 442.063-155.625 19.282 0 37.743-.278 55.968-.5 6.652 0 13.25-.282 19.845-.282-35.895-36.98-67.03-78.846-67.03-143.624 0-32.778 7.764-67.044 23.124-102.187-12.968.64-24.475.936-35.69.936-213.575 0-373.84-109.293-438.28-285.343zm515.344 630.062c-231.674 0-427.375 146.385-427.375 319.625 0 59.368 18.942 114.526 52.374 161.875h758.593c24.855-42.688 37.47-93.614 37.47-152.47 0-20.422-2.475-41.224-7.345-61.842-21.397-83.727-97.566-135.246-202.968-206.563-17.335-11.742-35.34-23.895-53.844-36.75-47.86-15.276-98.622-23.315-150.906-23.844l-6-.03z" fill="#bb3627" stroke="#000" stroke-width=".97"/><path fill="#fff" d="M1182.163 736.718V569.766h278.253V291.512h166.952v278.254h278.253v166.952H1627.37v278.253h-166.952V736.72"/></symbol><symbol id="home" viewBox="0 0 2048 2048"><title>Home</title><path d="M1025.156 128L0 1152h256v768h512v-640h512v640h512v-768h256z"/></symbol><symbol id="info" viewBox="0 0 2048 2048"><title>Info</title><path d="M1024 .002a1024 1024 0 0 0-1024 1024 1024 1024 0 0 0 1024 1024 1024 1024 0 0 0 1024-1024 1024 1024 0 0 0-1024-1024zm-78.219 484.193h203.13l-32.718 192.223h-203.13l32.718-192.223zm-40.955 340.71h203.13l-113.153 677.609h-203.13l113.153-677.61z"/></symbol><symbol id="linked-in" viewBox="0 0 2048 2048"><title>LinkedIn</title><path clip-rule="evenodd" fill="#007bb6" fill-rule="evenodd" d="M0-.01h2048v2048H0z"/><path clip-rule="evenodd" d="M811.585 1406.58V896H640v512h171.585zm-84.72-579.45c59.1 0 95.872-39.178 95.872-88.098-1.1-50.02-36.773-88.097-94.75-88.097-57.98 0-95.872 38.078-95.872 88.097 0 48.92 36.773 88.097 93.653 88.097zM896 1408h172.82v-286.15c0-15.235 1.118-30.492 5.575-41.354 12.272-30.45 40.172-61.98 86.957-61.98 61.337 0 85.86 46.765 85.86 115.295V1408H1408v-293.757c0-156.627-74.91-229.488-186.43-229.488-91.415 0-131.545 51.096-153.85 85.9h1.12V896H896c2.197 47.842 0 512 0 512z" fill="#fff" fill-rule="evenodd"/></symbol><symbol id="mobile" viewBox="0 0 1153.25 2048"><title>Mobile</title><path d="M1004.765 0H148.302C66.345 0 0 66.92 0 149.186V1898.81C0 1981.26 66.344 2048 148.3 2048h856.463c82.14 0 148.486-66.74 148.486-149.19V149.186C1153.25 66.92 1086.907 0 1004.766 0zM479.677 128h193.89v63.925h-193.89zm97.036 1841.84c-52.156 0-94.552-42.56-94.552-95.12 0-52.46 42.487-94.93 94.553-94.93 52.06 0 94.378 42.56 94.378 94.93 0 52.56-42.227 95.12-94.377 95.12zm465.49-250.1H111.225V328.53h930.976z" fill-rule="nonzero"/></symbol><symbol id="modal-close" viewBox="0 0 2048.0001 2047.9999"><title>Modal-Close</title><path d="M161.72 0L0 161.72l862.344 862.436L0 1886.47 161.625 2048l862.313-862.406L1886.28 2048 2048 1886.28l-862.344-862.343 862.25-862.312L1886.28 0l-862.217 862.312L161.718 0z" fill-rule="evenodd"/></symbol><symbol id="process-checkmark" viewBox="0 0 2048 1743"><title>Process Checkmark</title><path d="M269.838 753.917L0 940.667 823.35 1743S1750.487 380.417 2048 117.583L1937.297 0C1556.757 193.667 777.3 1176.72 777.3 1176.72"/></symbol><symbol id="remove" viewBox="0 0 24 24"><path fill="currentColor" d="M24 13.63v-2.346m-24-.032v2.314"/><path fill="currentColor" stroke="currentColor" stroke-width="2" stroke-miterlimit="10" d="M0 12h24"/></symbol><symbol id="search" viewBox="0 0 24 24"><path fill="none" stroke="currentColor" stroke-width="2.702" stroke-miterlimit="10" d="M11.71 11.722l10.274 11.17"/><circle fill="none" stroke="currentColor" stroke-width="2" stroke-miterlimit="10" cx="7.3" cy="7.301" r="6.278"/></symbol><symbol id="source" viewBox="0 0 1904.99 2048"><title>Source</title><path d="M363.964 163.667c-62.615 84.38-94.356 197.48-94.356 336.14v161.39c0 78.43-13.58 119.224-25.03 139.764-29.16 52.52-89.255 83.49-183.707 94.687L0 902.857v237.236l61.596 6.65c93.075 10.055 152.796 41.773 182.574 96.984 16.875 31.283 25.438 77.637 25.438 137.73v204.177c0 153.25 48.217 266.765 143.334 337.39 86.77 64.416 196.486 103.716 326.096 116.82l75.92 7.68v-253.607l-60.89-7.196c-48.216-5.705-91.8-25.378-133.19-60.15-34.976-29.384-52.7-84.862-52.7-164.888v-149.76c0-105.23-13.957-187.735-42.767-252.473-20.502-45.534-54.564-96.765-110.982-137.16 47.818-33.044 84.824-77.67 110.703-133.634 28.962-62.65 43.05-146.65 43.05-256.793V520.917c0-71.825 8.328-127.078 24.74-164.07 17.15-38.512 52.3-90.75 159.025-100.03l63.014-5.46V0l-74.812 6.353C553.845 22.1 430.794 73.573 363.964 163.667zm1479.38 731.893c-93.97-10.055-154.067-41.222-183.753-95.273-16.475-29.994-25.18-78.073-25.18-139.032v-161.36c0-134.077-23.315-233.818-70.95-304.437-72.793-109.89-206.966-173.533-398.83-189.147L1090.04.25v251.12l63.06 5.44c108.056 9.333 142.678 58.532 159.236 94.543 11.178 24.48 24.503 73.748 24.503 169.328V631.55c0 110.81 14.07 195.157 43.097 257.932 20.37 43.855 54.367 93.32 110.96 132.445-48.056 34.286-85.558 80.47-111.304 137.742-28.773 63.903-42.754 146.493-42.754 252.51v149.658c0 72.53-16.945 126.39-50.34 160.03-36.19 36.42-80.826 57.67-136.44 64.95l-60.024 7.865V2048l76.352-8.192c128.468-13.793 237.46-52.395 323.903-114.73 95.632-68.954 144.115-183.162 144.115-339.444v-204.178c0-58.973 8.632-105.116 25.46-136.798 30.34-56.35 90.252-88.37 183.15-97.87l61.976-6.338V902.156l-61.646-6.596z"/></symbol><symbol id="switch" viewBox="0 0 1815.4399 2048"><title>AXA Switch</title><title>switch</title><path d="M-.003 2048H232.92L1815.443 0H1577.25L-.004 2048z"/></symbol><symbol id="tablet" viewBox="0 0 1664 2048"><title>Mobile</title><path d="M1492.3 0h-1344C66.34 0-.006 66.92-.006 149.186V1898.81C-.005 1981.26 66.34 2048 148.3 2048h1367.998c82.142 0 148.487-66.74 148.487-149.19V149.186C1664.785 66.92 1574.44 0 1492.3 0zM832.086 1983.025c-52.156 0-94.552-42.56-94.552-95.12 0-52.46 42.486-94.93 94.552-94.93 52.06 0 94.378 42.56 94.378 94.93 0 52.56-42.228 95.12-94.378 95.12zM1536 1728H128V320h1408z" fill-rule="nonzero"/></symbol><symbol id="twitter" viewBox="0 0 2048 2048"><title>Twitter</title><path d="M1706.667 642.667C1656.89 664.89 1603.11 680 1545.333 688c60.445-35.556 101.778-87.556 124-156-57.777 33.778-117.333 56.444-178.666 68-54.223-58.667-122.223-88-204-88-77.334 0-143.334 27.333-198 82-54.667 54.667-82 120.667-82 198 0 25.778 2.222 47.11 6.666 64-114.666-6.222-222.222-35.11-322.666-86.667-100.445-51.555-185.778-120.444-256-206.666C408.89 607.11 396 654.222 396 704c0 101.333 40.444 179.11 121.333 233.333-41.777-.89-86.222-12.444-133.333-34.666v2.666c0 66.667 22.222 126 66.667 178 44.444 52 99.11 84.222 164 96.667-25.778 7.11-48.445 10.667-68 10.667-11.556 0-28.89-1.778-52-5.334 18.666 56 51.777 102.222 99.333 138.667 47.556 36.444 101.556 55.11 162 56-103.11 80-219.11 120-348 120-23.11 0-45.333-1.333-66.667-4C472.89 1579.555 616 1621.333 770.667 1621.333c99.555 0 192.89-15.778 280-47.333 87.11-31.555 161.777-73.778 224-126.667 62.222-52.89 115.777-113.777 160.666-182.666 44.89-68.89 78.223-140.89 100-216C1557.11 973.557 1568 898.667 1568 824c0-16-.444-28-1.333-36 56-40 102.666-88.444 140-145.333zM2048 2048H0V0h2048z" fill="#55acee"/></symbol><symbol id="upload" viewBox="0 0 1792 2048"><title>Upload</title><path d="M640 896v640h512V896h512L896.026 0 128 896zM0 1792h1792v256H0z"/></symbol><symbol id="xing" viewBox="0 0 2048 2048"><title>Xing</title><path d="M0 0v2048h2048V0H0zm1341.28 384h299.532l-445 768 286.75 512H1183l-286.72-512 445-768zM485.626 640H767.97l166.84 256-222.468 384H429.97l222.467-384-166.812-256z" fill="#00605e"/></symbol><symbol id="youtube" viewBox="0 0 2048 2048"><title>Youtube</title><path fill="#ca272c" stroke="#000" stroke-width=".256" stroke-linecap="round" d="M0 .128h2047.744v2047.744H0z"/><path d="M1030.335 590.758c-145.168 0-359.663 8.793-423.867 10.94-69.735 6.235-95.55 9.89-133.742 42.573-58.194 51.756-72 153.452-72 309.04v148.073c0 177.59 23.584 267.812 62.417 300.812 44.825 38.453 74.38 41.527 104.228 46.135 11.59 1.754 93.603 16.283 457.537 16.283 226.95 0 422.022-10.72 442.186-13.314 32.417-4.092 78.984-10.03 114.15-49.105 52.06-59.17 62.42-157.4 62.42-299.71V929.99c0-92.117-5.132-222.306-62.42-276.812-43.396-36.736-59.29-47.13-149.09-51.648-25.397-1.254-247.012-10.77-401.818-10.77zM896 854l335.16 173.007L896 1201.37V854z" fill="#fff"/></symbol></svg>